<svg width="44" height="46" xmlns="http://www.w3.org/2000/svg" xmlns:xlink="http://www.w3.org/1999/xlink" overflow="hidden"><g transform="translate(-483 -606)"><path d="M513.282 607.08C516.128 607.54 517.875 611.379 517.183 615.653 516.492 619.927 513.624 623.019 510.778 622.559 507.932 622.098 506.186 618.26 506.877 613.986 507.569 609.711 510.436 606.62 513.282 607.08Z" fill-rule="evenodd"/><path d="M523.235 620.542C525.897 621.649 526.932 625.245 525.547 628.575 524.163 631.905 520.882 633.707 518.22 632.6 515.558 631.494 514.523 627.897 515.908 624.567 517.292 621.237 520.573 619.435 523.235 620.542Z" fill-rule="evenodd"/><path d="M503.372 613.983C504.063 618.258 502.317 622.096 499.471 622.556 496.625 623.017 493.757 619.925 493.066 615.651 492.374 611.376 494.121 607.538 496.966 607.078 499.812 606.617 502.68 609.709 503.372 613.983Z" fill-rule="evenodd"/><path d="M494.324 624.567C495.709 627.897 494.673 631.494 492.011 632.601 489.35 633.708 486.069 631.906 484.684 628.576 483.299 625.246 484.335 621.649 486.997 620.542 489.659 619.435 492.939 621.237 494.324 624.567Z" fill-rule="evenodd"/><path d="M505.464 648.577C506.953 648.564 508.412 648.998 509.653 649.823 510.03 650.059 510.426 650.264 510.836 650.437 514.085 651.892 517.896 650.43 519.347 647.171 519.501 646.827 519.624 646.47 519.715 646.104 520.241 644.129 520.034 642.029 519.134 640.194 518.564 639.018 517.734 637.987 516.708 637.179 515.969 636.622 515.297 635.981 514.704 635.269L514.003 634.395C512.925 633.09 512.158 631.557 511.758 629.912 511.465 628.576 510.837 627.338 509.934 626.314 507.654 623.58 503.597 623.217 500.871 625.503 500.578 625.749 500.307 626.02 500.063 626.314 499.166 627.342 498.539 628.579 498.239 629.912 497.838 631.557 497.071 633.09 495.994 634.395L495.302 635.269C494.709 635.981 494.037 636.621 493.298 637.179 492.272 637.984 491.446 639.016 490.883 640.194 489.971 642.025 489.757 644.127 490.281 646.104 491.315 649.659 495.026 651.7 498.57 650.664 499.182 650.485 499.766 650.219 500.303 649.874 501.481 649.119 502.835 648.685 504.231 648.617Z" fill-rule="evenodd"/></g></svg>