<?xml version="1.0" encoding="utf-8"?>
<svg version="1.2" baseProfile="tiny" id="openrndr-svg" xmlns="http://www.w3.org/2000/svg" xmlns:xlink="http://www.w3.org/1999/xlink" x="0.0" width="640.0" y="0.0" height="480.0" ><g >
<path stroke="000" d="M 8.483132 37.828532Q8.833132 38.176334000000004 9.338434 38.176334000000004Q9.84375 38.176334000000004 10.259368 37.4829Q10.677184 36.789466000000004 10.992184 35.7504Q11.307184 34.711334 11.45375 34.009150000000005Q11.600316 33.30915 11.819066 32.202268000000004Q12.018132000000001 31.169768000000005 12.201868000000001 30.130716000000003Q12.387816 29.091650000000005 12.5825 27.919150000000002Q12.777184 26.746650000000002 12.991566 25.539150000000003Q13.208132 24.333834000000003 13.481566 22.973216Q13.849066 21.18165 14.008750000000001 20.41165Q14.170632000000001 19.643834000000002 14.498750000000001 18.191334Q14.826868000000001 16.738834 14.931868000000001 16.277268Q15.039066 15.815716000000002 15.537816000000001 13.7529L15.72375 13.020084Q16.036566 11.790716 16.207184 11.158532000000001Q16.380000000000003 10.526334 16.738750000000003 9.611966Q17.0975 8.699768 17.580934000000003 8.067584Q18.066566 7.4354000000000005 18.648434 7.4354000000000005Q19.059684000000004 7.4354000000000005 19.409684000000002 7.61915Q19.761868 7.805084000000001 19.980632 8.12665Q20.199368 8.448216 20.199368 8.863834Q20.199368 9.165716 20.000315999999998 9.362584Q19.803434000000003 9.56165 19.503750000000004 9.56165Q19.195316 9.56165 18.989684000000004 9.362584Q18.786250000000003 9.165716 18.786250000000003 8.863834Q18.786250000000003 8.557584 18.989684000000004 8.351966000000001Q19.195316 8.146334000000001 19.503750000000004 8.146334000000001Q19.140632000000004 7.798532000000001 18.661566 7.798532000000001Q18.403434000000004 7.798532000000001 18.090632 8.5554Q17.78 9.314466000000001 17.517500000000002 10.342584Q17.255000000000003 11.372900000000001 17.112816000000002 12.059768000000002Q16.972816 12.74665 16.775934 13.779150000000001Q16.544066 14.947268000000001 16.38875 15.815716000000002Q16.235632000000003 16.684150000000002 16.016868000000002 17.961650000000002Q15.798132 19.241334000000002 15.588132000000002 20.396334000000003Q15.380316 21.551334000000004 15.09375 23.00165Q14.91 23.916032000000005 14.56 25.574150000000003Q14.212184 27.232268000000005 14.098434000000001 27.731032000000003Q13.986868000000001 28.229768000000004 13.525316 30.170084000000003Q13.06375 32.112584000000005 13.035316000000002 32.228532L12.864684 32.87165Q12.50375 34.35476800000001 12.13625 35.479150000000004Q11.770934 36.603532 11.062184 37.574768000000006Q10.355632 38.546032000000004 9.338434 38.546032000000004Q8.730316 38.546032000000004 8.257816 38.134768Q7.785316 37.725716 7.785316 37.130716Q7.785316 36.822268 7.990934 36.61665Q8.196566 36.413216 8.49625 36.413216Q8.695316 36.413216 8.855 36.507268Q9.016868 36.603532 9.10875 36.76758400000001Q9.200632 36.931650000000005 9.200632 37.130716Q9.200632 37.432584000000006 8.995000000000001 37.629466Q8.791566 37.828532 8.483132 37.828532z"/>
<path stroke="000" d="M 25.9780962 8.5536962Q26.5569038 7.5736962 27.3899038 7.1434076Q27.8799038 6.8876962 28.3898076 6.8876962Q29.33 6.8876962 29.869 7.7605037999999995Q30.2410962 8.3576962 30.2410962 9.1034076Q30.2410962 10.1216962 29.6148076 10.778599999999999Q29.0941924 11.3267924 28.3591924 11.3267924Q27.4970962 11.3267924 26.6931924 10.6515038Q26.4788076 10.4646962 26.0378076 9.936407599999999L25.8111924 9.6607924Q25.2339038 10.6407924 24.400903800000002 11.0726Q23.9109038 11.3267924 23.401 11.3267924Q22.4608076 11.3267924 21.9218076 10.455503799999999Q21.5481924 9.8567924 21.5481924 9.1126Q21.5481924 8.0927924 22.176000000000002 7.437407599999999Q22.695096200000002 6.8876962 23.4300962 6.8876962Q24.2921924 6.8876962 25.096096199999998 7.5645038Q25.312 7.7497924000000005 25.753 8.2796L25.7928076 8.3286Q25.851 8.406696199999999 25.9780962 8.5536962zM 26.2338076 8.8966962L27.174 10.101792399999999Q27.1831924 10.101792399999999 27.1831924 10.112503799999999L27.223 10.1507924Q27.8691924 10.8566962 28.5169038 10.8566962Q29.2228076 10.8566962 29.682192399999998 10.2196962Q30.0251924 9.7404076 30.0251924 9.1034076Q30.0251924 8.239792399999999 29.5060962 7.6716961999999995Q29.1248076 7.2505999999999995 28.5750962 7.2016L28.4571924 7.2016Q27.223 7.2016 26.282807599999998 8.8094076Q26.2629038 8.8476962 26.2338076 8.8966962zM 25.557000000000002 9.3177924L25.557000000000002 9.3177924L24.6168076 8.1126962L24.6060962 8.103503799999999L24.567807600000002 8.063696199999999Q23.9200962 7.357792399999999 23.2739038 7.357792399999999Q22.568 7.357792399999999 22.1070962 7.9947924Q21.7640962 8.4756 21.7640962 9.1126Q21.7640962 9.9746962 22.2831924 10.5427924Q22.7058076 11.0144076 23.3320962 11.0144076Q24.567807600000002 11.0144076 25.508 9.4066Q25.5279038 9.3667924 25.557000000000002 9.3177924z"/>
<path stroke="000" d="M 19.2864 35.9016Q19.2864 37.331792400000005 18.923496200000002 38.115792400000004Q18.3462076 39.21369620000001 17.2192076 39.253503800000004Q16.3264962 39.253503800000004 15.787496200000001 38.5476Q15.6803038 38.420503800000006 15.602207600000002 38.2627924Q15.161207600000001 37.449696200000005 15.161207600000001 35.9016Q15.161207600000001 34.4606962 15.5225924 33.6766962Q16.012592400000003 32.578792400000005 17.1104962 32.511407600000005L17.2284 32.511407600000005Q18.101207600000002 32.511407600000005 18.6494 33.2066L18.6494 33.215792400000005Q18.787207600000002 33.3934076 18.8944 33.60779240000001Q19.2864 34.44079240000001 19.2864 35.9016zM 17.2192076 39.037600000000005L17.2192076 39.037600000000005Q17.836303800000003 39.037600000000005 18.1685924 38.44040760000001Q18.3064 38.1755038 18.364592400000003 37.8126Q18.4733038 37.184792400000006 18.4733038 35.7836962Q18.4733038 34.42240760000001 18.3753038 33.87269620000001Q18.1992076 32.9416962 17.4734 32.7564076Q17.3463038 32.7257924 17.2192076 32.7257924Q16.5332076 32.7257924 16.219303800000002 33.4117924Q16.1105924 33.647600000000004 16.052400000000002 33.981407600000004Q15.974303800000001 34.50969620000001 15.974303800000001 35.7836962Q15.974303800000001 37.264407600000006 16.0814962 37.85240760000001Q16.2575924 38.79260000000001 16.9435924 38.9977924Q17.081400000000002 39.037600000000005 17.2192076 39.037600000000005z"/>
</g>
</svg>