<?xml version="1.0" encoding="utf-8"?>
<svg version="1.2" baseProfile="tiny" id="openrndr-svg" xmlns="http://www.w3.org/2000/svg" xmlns:xlink="http://www.w3.org/1999/xlink" x="0.0" width="42.0" y="0.0" height="47.0" ><g >
<g id="genericDefs">
</g>
<g >
<g transform="matrix(0.14 0.0 0.0 0.14 7.0 7.4354000000000005)">
<path stroke="000" d="M 10.5938 217.0938Q13.0938 219.5781 16.7031 219.5781Q20.3125 219.5781 23.2812 214.625Q26.2656 209.6719 28.5156 202.25Q30.7656 194.8281 31.8125 189.8125Q32.8594 184.8125 34.4219 176.9062Q35.8438 169.5312 37.1562 162.1094Q38.4844 154.6875 39.875 146.3125Q41.2656 137.9375 42.7969 129.3125Q44.3438 120.7031 46.2969 110.9844Q48.9219 98.1875 50.0625 92.6875Q51.2188 87.2031 53.5625 76.8281Q55.9062 66.4531 56.6562 63.1562Q57.4219 59.8594 60.9844 45.125L62.3125 39.8906Q64.5469 31.1094 65.7656 26.5938Q67.0 22.0781 69.5625 15.5469Q72.125 9.0312 75.5781 4.5156Q79.0469 0.0 83.2031 0.0Q86.1406 0.0 88.6406 1.3125Q91.1562 2.6406 92.7188 4.9375Q94.2812 7.2344 94.2812 10.2031Q94.2812 12.3594 92.8594 13.7656Q91.4531 15.1875 89.3125 15.1875Q87.1094 15.1875 85.6406 13.7656Q84.1875 12.3594 84.1875 10.2031Q84.1875 8.0156 85.6406 6.5469Q87.1094 5.0781 89.3125 5.0781Q86.7188 2.5938 83.2969 2.5938Q81.4531 2.5938 79.2188 8.0Q77.0 13.4219 75.125 20.7656Q73.25 28.125 72.2344 33.0312Q71.2344 37.9375 69.8281 45.3125Q68.1719 53.6562 67.0625 59.8594Q65.9688 66.0625 64.4062 75.1875Q62.8438 84.3281 61.3438 92.5781Q59.8594 100.8281 57.8125 111.1875Q56.5 117.7188 54.0 129.5625Q51.5156 141.4062 50.7031 144.9688Q49.9062 148.5312 46.6094 162.3906Q43.3125 176.2656 43.1094 177.0938L41.8906 181.6875Q39.3125 192.2812 36.6875 200.3125Q34.0781 208.3438 29.0156 215.2812Q23.9688 222.2188 16.7031 222.2188Q12.3594 222.2188 8.9844 219.2812Q5.6094 216.3594 5.6094 212.1094Q5.6094 209.9062 7.0781 208.4375Q8.5469 206.9844 10.6875 206.9844Q12.1094 206.9844 13.25 207.6562Q14.4062 208.3438 15.0625 209.5156Q15.7188 210.6875 15.7188 212.1094Q15.7188 214.2656 14.25 215.6719Q12.7969 217.0938 10.5938 217.0938z"/>
</g>
<g transform="matrix(0.098 0.0 0.0 0.098 21.0 11.2196)">
<path stroke="000" d="M 50.7969 -27.2031Q56.7031 -37.2031 65.2031 -41.5938Q70.2031 -44.2031 75.4062 -44.2031Q85.0 -44.2031 90.5 -35.2969Q94.2969 -29.2031 94.2969 -21.5938Q94.2969 -11.2031 87.9062 -4.5Q82.5938 1.0938 75.0938 1.0938Q66.2969 1.0938 58.0938 -5.7969Q55.9062 -7.7031 51.4062 -13.0938L49.0938 -15.9062Q43.2031 -5.9062 34.7031 -1.5Q29.7031 1.0938 24.5 1.0938Q14.9062 1.0938 9.4062 -7.7969Q5.5938 -13.9062 5.5938 -21.5Q5.5938 -31.9062 12.0 -38.5938Q17.2969 -44.2031 24.7969 -44.2031Q33.5938 -44.2031 41.7969 -37.2969Q44.0 -35.4062 48.5 -30.0L48.9062 -29.5Q49.5 -28.7031 50.7969 -27.2031zM 53.4062 -23.7031L63.0 -11.4062Q63.0938 -11.4062 63.0938 -11.2969L63.5 -10.9062Q70.0938 -3.7031 76.7031 -3.7031Q83.9062 -3.7031 88.5938 -10.2031Q92.0938 -15.0938 92.0938 -21.5938Q92.0938 -30.4062 86.7969 -36.2031Q82.9062 -40.5 77.2969 -41.0L76.0938 -41.0Q63.5 -41.0 53.9062 -24.5938Q53.7031 -24.2031 53.4062 -23.7031zM 46.5 -19.4062L46.5 -19.4062L36.9062 -31.7031L36.7969 -31.7969L36.4062 -32.2031Q29.7969 -39.4062 23.2031 -39.4062Q16.0 -39.4062 11.2969 -32.9062Q7.7969 -28.0 7.7969 -21.5Q7.7969 -12.7031 13.0938 -6.9062Q17.4062 -2.0938 23.7969 -2.0938Q36.4062 -2.0938 46.0 -18.5Q46.2031 -18.9062 46.5 -19.4062z"/>
</g>
<g transform="matrix(0.098 0.0 0.0 0.098 14.778400000000001 39.037600000000005)">
<path stroke="000" d="M 46.0 -32.0Q46.0 -17.4062 42.2969 -9.4062Q36.4062 1.7969 24.9062 2.2031Q15.7969 2.2031 10.2969 -5.0Q9.2031 -6.2969 8.4062 -7.9062Q3.9062 -16.2031 3.9062 -32.0Q3.9062 -46.7031 7.5938 -54.7031Q12.5938 -65.9062 23.7969 -66.5938L25.0 -66.5938Q33.9062 -66.5938 39.5 -59.5L39.5 -59.4062Q40.9062 -57.5938 42.0 -55.4062Q46.0 -46.9062 46.0 -32.0zM 24.9062 0.0L24.9062 0.0Q31.2031 0.0 34.5938 -6.0938Q36.0 -8.7969 36.5938 -12.5Q37.7031 -18.9062 37.7031 -33.2031Q37.7031 -47.0938 36.7031 -52.7031Q34.9062 -62.2031 27.5 -64.0938Q26.2031 -64.4062 24.9062 -64.4062Q17.9062 -64.4062 14.7031 -57.4062Q13.5938 -55.0 13.0 -51.5938Q12.2031 -46.2031 12.2031 -33.2031Q12.2031 -18.0938 13.2969 -12.0938Q15.0938 -2.5 22.0938 -0.4062Q23.5 0.0 24.9062 0.0z"/>
</g>
</g>
</g>
</svg>