<?xml version="1.0" encoding="utf-8"?>
<svg version="1.2" baseProfile="tiny" id="openrndr-svg" xmlns="http://www.w3.org/2000/svg" xmlns:xlink="http://www.w3.org/1999/xlink" x="0.0" width="640.0" height="480.0" y="0.0" ><g >
<path stroke="ffc0cb" stroke-width="0.5" fill="none" d="M 420.0 390.0L370.0 390.0"/>
<path stroke="ffc0cb" stroke-width="0.5" fill="none" d="M 420.0 390.0L380.0 410.0"/>
<path stroke="ffc0cb" stroke-width="0.5" fill="none" d="M 420.0 390.0L390.0 425.0"/>
<path stroke="ffc0cb" stroke-width="0.5" fill="none" d="M 420.0 390.0L400.0 435.0"/>
<path stroke="ffc0cb" stroke-width="0.5" fill="none" d="M 420.0 390.0L420.0 440.0"/>
<path stroke="ffc0cb" stroke-width="0.5" fill="none" d="M 520.0 340.0L450.0 425.0"/>
<path stroke="ffc0cb" stroke-width="0.5" fill="none" d="M 520.0 440.0L450.0 425.0"/>
<path stroke="000" fill="ffffff" d="M 420.0 390.0L520.0 340.0L520.0 440.0"/>
<path stroke="000" stroke-width="0.5" fill="ffffff" d="M 415.0 390.0C415.0 392.761424 417.23857599999997 395.0 420.0 395.0C422.761424 395.0 425.0 392.761424 425.0 390.0C425.0 387.238576 422.761424 385.0 420.0 385.0C417.23857599999997 385.0 415.0 387.238576 415.0 390.0z"/>
<path stroke="000" stroke-width="0.5" fill="ffffff" d="M 515.0 340.0C515.0 342.761424 517.238576 345.0 520.0 345.0C522.761424 345.0 525.0 342.761424 525.0 340.0C525.0 337.238576 522.761424 335.0 520.0 335.0C517.238576 335.0 515.0 337.238576 515.0 340.0z"/>
<path stroke="000" stroke-width="0.5" fill="ffffff" d="M 515.0 440.0C515.0 442.761424 517.238576 445.0 520.0 445.0C522.761424 445.0 525.0 442.761424 525.0 440.0C525.0 437.238576 522.761424 435.0 520.0 435.0C517.238576 435.0 515.0 437.238576 515.0 440.0z"/>
<path stroke="000" fill="ffffff" d="M 370.0 390.0L380.0 410.0L390.0 425.0L400.0 435.0L420.0 440.0L450.0 425.0"/>
<path stroke="000" stroke-width="0.5" fill="ffffff" d="M 365.0 390.0C365.0 392.761424 367.238576 395.0 370.0 395.0C372.761424 395.0 375.0 392.761424 375.0 390.0C375.0 387.238576 372.761424 385.0 370.0 385.0C367.238576 385.0 365.0 387.238576 365.0 390.0z"/>
<path stroke="000" stroke-width="0.5" fill="ffffff" d="M 375.0 410.0C375.0 412.761424 377.23857599999997 415.0 380.0 415.0C382.761424 415.0 385.0 412.761424 385.0 410.0C385.0 407.238576 382.761424 405.0 380.0 405.0C377.23857599999997 405.0 375.0 407.238576 375.0 410.0z"/>
<path stroke="000" stroke-width="0.5" fill="ffffff" d="M 385.0 425.0C385.0 427.761424 387.23857599999997 430.0 390.0 430.0C392.761424 430.0 395.0 427.761424 395.0 425.0C395.0 422.23857599999997 392.761424 420.0 390.0 420.0C387.23857599999997 420.0 385.0 422.23857599999997 385.0 425.0z"/>
<path stroke="000" stroke-width="0.5" fill="ffffff" d="M 395.0 435.0C395.0 437.76142400000003 397.238576 440.0 400.0 440.0C402.76142400000003 440.0 405.0 437.76142400000003 405.0 435.0C405.0 432.238576 402.76142400000003 430.0 400.0 430.0C397.238576 430.0 395.0 432.238576 395.0 435.0z"/>
<path stroke="000" stroke-width="0.5" fill="ffffff" d="M 415.0 440.0C415.0 442.761424 417.23857599999997 445.0 420.0 445.0C422.761424 445.0 425.0 442.761424 425.0 440.0C425.0 437.238576 422.761424 435.0 420.0 435.0C417.23857599999997 435.0 415.0 437.238576 415.0 440.0z"/>
<path stroke="000" stroke-width="0.5" fill="ffffff" d="M 445.0 425.0C445.0 427.761424 447.238576 430.0 450.0 430.0C452.76142400000003 430.0 455.0 427.761424 455.0 425.0C455.0 422.23857599999997 452.76142400000003 420.0 450.0 420.0C447.238576 420.0 445.0 422.23857599999997 445.0 425.0z"/>
<path fill="32628d" d="M -180.0 440.0L-96.66666666666666 440.0L-96.66666666666666 356.66666666666663L-180.0 356.66666666666663L-180.0 440.0z"/>
<path fill="365a8c" d="M -96.66666666666666 440.0L-13.333333333333314 440.0L-13.333333333333314 356.66666666666663L-96.66666666666666 356.66666666666663L-96.66666666666666 440.0z"/>
<path fill="355c8c" d="M -13.333333333333314 440.0L70.0 440.0L70.0 356.66666666666663L-13.333333333333314 356.66666666666663L-13.333333333333314 440.0z"/>
<path fill="33618d" d="M 70.0 440.0L153.33333333333337 440.0L153.33333333333337 356.66666666666663L70.0 356.66666666666663L70.0 440.0z"/>
<path fill="32628d" d="M 153.33333333333337 440.0L236.66666666666669 440.0L236.66666666666669 356.66666666666663L153.33333333333337 356.66666666666663L153.33333333333337 440.0z"/>
<path fill="355c8c" d="M 236.66666666666669 440.0L320.0 440.0L320.0 356.66666666666663L236.66666666666669 356.66666666666663L236.66666666666669 440.0z"/>
<path fill="fde724" d="M -180.0 356.66666666666663L-96.66666666666666 356.66666666666663L-96.66666666666666 273.3333333333333L-180.0 273.3333333333333L-180.0 356.66666666666663z"/>
<path fill="f8e621" d="M -96.66666666666666 356.66666666666663L-13.333333333333314 356.66666666666663L-13.333333333333314 273.3333333333333L-96.66666666666666 273.3333333333333L-96.66666666666666 356.66666666666663z"/>
<path fill="f3e51e" d="M -13.333333333333314 356.66666666666663L70.0 356.66666666666663L70.0 273.3333333333333L-13.333333333333314 273.3333333333333L-13.333333333333314 356.66666666666663z"/>
<path fill="e9e419" d="M 70.0 356.66666666666663L153.33333333333337 356.66666666666663L153.33333333333337 273.3333333333333L70.0 273.3333333333333L70.0 356.66666666666663z"/>
<path fill="b7dd29" d="M 153.33333333333337 356.66666666666663L236.66666666666669 356.66666666666663L236.66666666666669 273.3333333333333L153.33333333333337 273.3333333333333L153.33333333333337 356.66666666666663z"/>
<path fill="42be71" d="M 236.66666666666669 356.66666666666663L320.0 356.66666666666663L320.0 273.3333333333333L236.66666666666669 273.3333333333333L236.66666666666669 356.66666666666663z"/>
<path fill="fde724" d="M -180.0 273.3333333333333L-96.66666666666666 273.3333333333333L-96.66666666666666 190.0L-180.0 190.0L-180.0 273.3333333333333z"/>
<path fill="f8e621" d="M -96.66666666666666 273.3333333333333L-13.333333333333314 273.3333333333333L-13.333333333333314 190.0L-96.66666666666666 190.0L-96.66666666666666 273.3333333333333z"/>
<path fill="f3e51e" d="M -13.333333333333314 273.3333333333333L70.0 273.3333333333333L70.0 190.0L-13.333333333333314 190.0L-13.333333333333314 273.3333333333333z"/>
<path fill="e9e419" d="M 70.0 273.3333333333333L153.33333333333337 273.3333333333333L153.33333333333337 190.0L70.0 190.0L70.0 273.3333333333333z"/>
<path fill="b7dd29" d="M 153.33333333333337 273.3333333333333L236.66666666666669 273.3333333333333L236.66666666666669 190.0L153.33333333333337 190.0L153.33333333333337 273.3333333333333z"/>
<path fill="42be71" d="M 236.66666666666669 273.3333333333333L320.0 273.3333333333333L320.0 190.0L236.66666666666669 190.0L236.66666666666669 273.3333333333333z"/>
<path stroke="000" stroke-width="0.5" fill="none" d="M -180.0 356.66666666666663L320.0 356.66666666666663"/>
<path stroke="000" stroke-width="0.5" fill="none" d="M -180.0 273.3333333333333L320.0 273.3333333333333"/>
<path stroke="000" stroke-width="0.5" fill="none" d="M -96.66666666666666 440.0L-96.66666666666666 190.0"/>
<path stroke="000" stroke-width="0.5" fill="none" d="M -13.333333333333314 440.0L-13.333333333333314 190.0"/>
<path stroke="000" stroke-width="0.5" fill="none" d="M 70.0 440.0L70.0 190.0"/>
<path stroke="000" stroke-width="0.5" fill="none" d="M 153.33333333333337 440.0L153.33333333333337 190.0"/>
<path stroke="000" stroke-width="0.5" fill="none" d="M 236.66666666666669 440.0L236.66666666666669 190.0"/>
<path stroke="000" fill="none" d="M -180.0 440.0L320.0 440.0L320.0 190.0L-180.0 190.0L-180.0 440.0z"/>
<path stroke="e7ecef" fill="none" d="M -138.33333333333331 399.3333333333333L-55.0 399.3333333333333L28.333333333333343 399.3333333333333L111.66666666666669 399.3333333333333L195.0 399.3333333333333L278.33333333333337 316.0L278.33333333333337 232.66666666666666"/>
<path stroke="ff8811" fill="none" d="M -138.33333333333331 397.3333333333333L-55.0 397.3333333333333L28.333333333333343 397.3333333333333L111.66666666666669 314.0L195.0 230.66666666666666L278.33333333333337 230.66666666666666"/>
<path stroke="ffc0cb" stroke-width="0.5" fill="none" d="M 420.0 215.0L370.0 215.0"/>
<path stroke="ffc0cb" stroke-width="0.5" fill="none" d="M 420.0 215.0L380.0 235.0"/>
<path stroke="ffc0cb" stroke-width="0.5" fill="none" d="M 420.0 215.0L390.0 250.0"/>
<path stroke="ffc0cb" stroke-width="0.5" fill="none" d="M 520.0 165.0L400.0 260.0"/>
<path stroke="ffc0cb" stroke-width="0.5" fill="none" d="M 520.0 265.0L420.0 265.0"/>
<path stroke="ffc0cb" stroke-width="0.5" fill="none" d="M 520.0 265.0L450.0 250.0"/>
<path stroke="000" fill="ffffff" d="M 420.0 215.0L520.0 165.0L520.0 265.0"/>
<path stroke="000" stroke-width="0.5" fill="ffffff" d="M 415.0 215.0C415.0 217.761424 417.23857599999997 220.0 420.0 220.0C422.761424 220.0 425.0 217.761424 425.0 215.0C425.0 212.238576 422.761424 210.0 420.0 210.0C417.23857599999997 210.0 415.0 212.238576 415.0 215.0z"/>
<path stroke="000" stroke-width="0.5" fill="ffffff" d="M 515.0 165.0C515.0 167.761424 517.238576 170.0 520.0 170.0C522.761424 170.0 525.0 167.761424 525.0 165.0C525.0 162.238576 522.761424 160.0 520.0 160.0C517.238576 160.0 515.0 162.238576 515.0 165.0z"/>
<path stroke="000" stroke-width="0.5" fill="ffffff" d="M 515.0 265.0C515.0 267.761424 517.238576 270.0 520.0 270.0C522.761424 270.0 525.0 267.761424 525.0 265.0C525.0 262.238576 522.761424 260.0 520.0 260.0C517.238576 260.0 515.0 262.238576 515.0 265.0z"/>
<path stroke="000" fill="ffffff" d="M 370.0 215.0L380.0 235.0L390.0 250.0L400.0 260.0L420.0 265.0L450.0 250.0"/>
<path stroke="000" stroke-width="0.5" fill="ffffff" d="M 365.0 215.0C365.0 217.761424 367.238576 220.0 370.0 220.0C372.761424 220.0 375.0 217.761424 375.0 215.0C375.0 212.238576 372.761424 210.0 370.0 210.0C367.238576 210.0 365.0 212.238576 365.0 215.0z"/>
<path stroke="000" stroke-width="0.5" fill="ffffff" d="M 375.0 235.0C375.0 237.761424 377.23857599999997 240.0 380.0 240.0C382.761424 240.0 385.0 237.761424 385.0 235.0C385.0 232.238576 382.761424 230.0 380.0 230.0C377.23857599999997 230.0 375.0 232.238576 375.0 235.0z"/>
<path stroke="000" stroke-width="0.5" fill="ffffff" d="M 385.0 250.0C385.0 252.761424 387.23857599999997 255.0 390.0 255.0C392.761424 255.0 395.0 252.761424 395.0 250.0C395.0 247.238576 392.761424 245.0 390.0 245.0C387.23857599999997 245.0 385.0 247.238576 385.0 250.0z"/>
<path stroke="000" stroke-width="0.5" fill="ffffff" d="M 395.0 260.0C395.0 262.76142400000003 397.238576 265.0 400.0 265.0C402.76142400000003 265.0 405.0 262.76142400000003 405.0 260.0C405.0 257.238576 402.76142400000003 255.0 400.0 255.0C397.238576 255.0 395.0 257.238576 395.0 260.0z"/>
<path stroke="000" stroke-width="0.5" fill="ffffff" d="M 415.0 265.0C415.0 267.761424 417.23857599999997 270.0 420.0 270.0C422.761424 270.0 425.0 267.761424 425.0 265.0C425.0 262.238576 422.761424 260.0 420.0 260.0C417.23857599999997 260.0 415.0 262.238576 415.0 265.0z"/>
<path stroke="000" stroke-width="0.5" fill="ffffff" d="M 445.0 250.0C445.0 252.761424 447.238576 255.0 450.0 255.0C452.76142400000003 255.0 455.0 252.761424 455.0 250.0C455.0 247.238576 452.76142400000003 245.0 450.0 245.0C447.238576 245.0 445.0 247.238576 445.0 250.0z"/>
</g>
</svg>