<?xml version="1.0" encoding="utf-8"?>
<svg version="1.2" baseProfile="tiny" id="openrndr-svg" xmlns="http://www.w3.org/2000/svg" xmlns:xlink="http://www.w3.org/1999/xlink" x="0.0" width="1200.0" height="600.0" y="0.0" ><g >
<path stroke="ffc0cb" stroke-width="0.5" fill="none" d="M 700.0 450.0L650.0 450.0"/>
<path stroke="ffc0cb" stroke-width="0.5" fill="none" d="M 700.0 450.0L660.0 470.0"/>
<path stroke="ffc0cb" stroke-width="0.5" fill="none" d="M 700.0 450.0L670.0 485.0"/>
<path stroke="ffc0cb" stroke-width="0.5" fill="none" d="M 700.0 450.0L680.0 495.0"/>
<path stroke="ffc0cb" stroke-width="0.5" fill="none" d="M 700.0 450.0L700.0 500.0"/>
<path stroke="ffc0cb" stroke-width="0.5" fill="none" d="M 800.0 400.0L730.0 485.0"/>
<path stroke="ffc0cb" stroke-width="0.5" fill="none" d="M 800.0 500.0L730.0 485.0"/>
<path stroke="000" fill="ffffff" d="M 700.0 450.0L800.0 400.0L800.0 500.0"/>
<path stroke="000" stroke-width="0.5" fill="ffffff" d="M 695.0 450.0C695.0 452.761424 697.238576 455.0 700.0 455.0C702.761424 455.0 705.0 452.761424 705.0 450.0C705.0 447.238576 702.761424 445.0 700.0 445.0C697.238576 445.0 695.0 447.238576 695.0 450.0z"/>
<path stroke="000" stroke-width="0.5" fill="ffffff" d="M 795.0 400.0C795.0 402.761424 797.238576 405.0 800.0 405.0C802.761424 405.0 805.0 402.761424 805.0 400.0C805.0 397.238576 802.761424 395.0 800.0 395.0C797.238576 395.0 795.0 397.238576 795.0 400.0z"/>
<path stroke="000" stroke-width="0.5" fill="ffffff" d="M 795.0 500.0C795.0 502.761424 797.238576 505.0 800.0 505.0C802.761424 505.0 805.0 502.761424 805.0 500.0C805.0 497.238576 802.761424 495.0 800.0 495.0C797.238576 495.0 795.0 497.238576 795.0 500.0z"/>
<path stroke="000" fill="ffffff" d="M 650.0 450.0L660.0 470.0L670.0 485.0L680.0 495.0L700.0 500.0L730.0 485.0"/>
<path stroke="000" stroke-width="0.5" fill="ffffff" d="M 645.0 450.0C645.0 452.761424 647.238576 455.0 650.0 455.0C652.761424 455.0 655.0 452.761424 655.0 450.0C655.0 447.238576 652.761424 445.0 650.0 445.0C647.238576 445.0 645.0 447.238576 645.0 450.0z"/>
<path stroke="000" stroke-width="0.5" fill="ffffff" d="M 655.0 470.0C655.0 472.761424 657.238576 475.0 660.0 475.0C662.761424 475.0 665.0 472.761424 665.0 470.0C665.0 467.238576 662.761424 465.0 660.0 465.0C657.238576 465.0 655.0 467.238576 655.0 470.0z"/>
<path stroke="000" stroke-width="0.5" fill="ffffff" d="M 665.0 485.0C665.0 487.761424 667.238576 490.0 670.0 490.0C672.761424 490.0 675.0 487.761424 675.0 485.0C675.0 482.23857599999997 672.761424 480.0 670.0 480.0C667.238576 480.0 665.0 482.23857599999997 665.0 485.0z"/>
<path stroke="000" stroke-width="0.5" fill="ffffff" d="M 675.0 495.0C675.0 497.76142400000003 677.238576 500.0 680.0 500.0C682.761424 500.0 685.0 497.76142400000003 685.0 495.0C685.0 492.238576 682.761424 490.0 680.0 490.0C677.238576 490.0 675.0 492.238576 675.0 495.0z"/>
<path stroke="000" stroke-width="0.5" fill="ffffff" d="M 695.0 500.0C695.0 502.761424 697.238576 505.0 700.0 505.0C702.761424 505.0 705.0 502.761424 705.0 500.0C705.0 497.238576 702.761424 495.0 700.0 495.0C697.238576 495.0 695.0 497.238576 695.0 500.0z"/>
<path stroke="000" stroke-width="0.5" fill="ffffff" d="M 725.0 485.0C725.0 487.761424 727.238576 490.0 730.0 490.0C732.761424 490.0 735.0 487.761424 735.0 485.0C735.0 482.23857599999997 732.761424 480.0 730.0 480.0C727.238576 480.0 725.0 482.23857599999997 725.0 485.0z"/>
<path fill="32628d" d="M 100.0 500.0L183.33333333333334 500.0L183.33333333333334 416.66666666666663L100.0 416.66666666666663L100.0 500.0z"/>
<path fill="365a8c" d="M 183.33333333333334 500.0L266.6666666666667 500.0L266.6666666666667 416.66666666666663L183.33333333333334 416.66666666666663L183.33333333333334 500.0z"/>
<path fill="355c8c" d="M 266.6666666666667 500.0L350.0 500.0L350.0 416.66666666666663L266.6666666666667 416.66666666666663L266.6666666666667 500.0z"/>
<path fill="33618d" d="M 350.0 500.0L433.33333333333337 500.0L433.33333333333337 416.66666666666663L350.0 416.66666666666663L350.0 500.0z"/>
<path fill="32628d" d="M 433.33333333333337 500.0L516.6666666666667 500.0L516.6666666666667 416.66666666666663L433.33333333333337 416.66666666666663L433.33333333333337 500.0z"/>
<path fill="355c8c" d="M 516.6666666666667 500.0L600.0 500.0L600.0 416.66666666666663L516.6666666666667 416.66666666666663L516.6666666666667 500.0z"/>
<path fill="fde724" d="M 100.0 416.66666666666663L183.33333333333334 416.66666666666663L183.33333333333334 333.3333333333333L100.0 333.3333333333333L100.0 416.66666666666663z"/>
<path fill="f8e621" d="M 183.33333333333334 416.66666666666663L266.6666666666667 416.66666666666663L266.6666666666667 333.3333333333333L183.33333333333334 333.3333333333333L183.33333333333334 416.66666666666663z"/>
<path fill="f3e51e" d="M 266.6666666666667 416.66666666666663L350.0 416.66666666666663L350.0 333.3333333333333L266.6666666666667 333.3333333333333L266.6666666666667 416.66666666666663z"/>
<path fill="e9e419" d="M 350.0 416.66666666666663L433.33333333333337 416.66666666666663L433.33333333333337 333.3333333333333L350.0 333.3333333333333L350.0 416.66666666666663z"/>
<path fill="b7dd29" d="M 433.33333333333337 416.66666666666663L516.6666666666667 416.66666666666663L516.6666666666667 333.3333333333333L433.33333333333337 333.3333333333333L433.33333333333337 416.66666666666663z"/>
<path fill="42be71" d="M 516.6666666666667 416.66666666666663L600.0 416.66666666666663L600.0 333.3333333333333L516.6666666666667 333.3333333333333L516.6666666666667 416.66666666666663z"/>
<path fill="fde724" d="M 100.0 333.3333333333333L183.33333333333334 333.3333333333333L183.33333333333334 250.0L100.0 250.0L100.0 333.3333333333333z"/>
<path fill="f8e621" d="M 183.33333333333334 333.3333333333333L266.6666666666667 333.3333333333333L266.6666666666667 250.0L183.33333333333334 250.0L183.33333333333334 333.3333333333333z"/>
<path fill="f3e51e" d="M 266.6666666666667 333.3333333333333L350.0 333.3333333333333L350.0 250.0L266.6666666666667 250.0L266.6666666666667 333.3333333333333z"/>
<path fill="e9e419" d="M 350.0 333.3333333333333L433.33333333333337 333.3333333333333L433.33333333333337 250.0L350.0 250.0L350.0 333.3333333333333z"/>
<path fill="b7dd29" d="M 433.33333333333337 333.3333333333333L516.6666666666667 333.3333333333333L516.6666666666667 250.0L433.33333333333337 250.0L433.33333333333337 333.3333333333333z"/>
<path fill="42be71" d="M 516.6666666666667 333.3333333333333L600.0 333.3333333333333L600.0 250.0L516.6666666666667 250.0L516.6666666666667 333.3333333333333z"/>
<path stroke="000" stroke-width="0.5" fill="none" d="M 100.0 416.66666666666663L600.0 416.66666666666663"/>
<path stroke="000" stroke-width="0.5" fill="none" d="M 100.0 333.3333333333333L600.0 333.3333333333333"/>
<path stroke="000" stroke-width="0.5" fill="none" d="M 183.33333333333334 500.0L183.33333333333334 250.0"/>
<path stroke="000" stroke-width="0.5" fill="none" d="M 266.6666666666667 500.0L266.6666666666667 250.0"/>
<path stroke="000" stroke-width="0.5" fill="none" d="M 350.0 500.0L350.0 250.0"/>
<path stroke="000" stroke-width="0.5" fill="none" d="M 433.33333333333337 500.0L433.33333333333337 250.0"/>
<path stroke="000" stroke-width="0.5" fill="none" d="M 516.6666666666667 500.0L516.6666666666667 250.0"/>
<path stroke="000" fill="none" d="M 100.0 500.0L600.0 500.0L600.0 250.0L100.0 250.0L100.0 500.0z"/>
<path stroke="e7ecef" fill="none" d="M 141.66666666666669 459.3333333333333L225.0 459.3333333333333L308.33333333333337 459.3333333333333L391.6666666666667 459.3333333333333L475.0 459.3333333333333L558.3333333333334 376.0L558.3333333333334 292.66666666666663"/>
<path stroke="ff8811" fill="none" d="M 141.66666666666669 457.3333333333333L225.0 457.3333333333333L308.33333333333337 457.3333333333333L391.6666666666667 374.0L475.0 290.66666666666663L558.3333333333334 290.66666666666663"/>
<path stroke="ffc0cb" stroke-width="0.5" fill="none" d="M 700.0 275.0L650.0 275.0"/>
<path stroke="ffc0cb" stroke-width="0.5" fill="none" d="M 700.0 275.0L660.0 295.0"/>
<path stroke="ffc0cb" stroke-width="0.5" fill="none" d="M 700.0 275.0L670.0 310.0"/>
<path stroke="ffc0cb" stroke-width="0.5" fill="none" d="M 800.0 225.0L680.0 320.0"/>
<path stroke="ffc0cb" stroke-width="0.5" fill="none" d="M 800.0 325.0L700.0 325.0"/>
<path stroke="ffc0cb" stroke-width="0.5" fill="none" d="M 800.0 325.0L730.0 310.0"/>
<path stroke="000" fill="ffffff" d="M 700.0 275.0L800.0 225.0L800.0 325.0"/>
<path stroke="000" stroke-width="0.5" fill="ffffff" d="M 695.0 275.0C695.0 277.761424 697.238576 280.0 700.0 280.0C702.761424 280.0 705.0 277.761424 705.0 275.0C705.0 272.238576 702.761424 270.0 700.0 270.0C697.238576 270.0 695.0 272.238576 695.0 275.0z"/>
<path stroke="000" stroke-width="0.5" fill="ffffff" d="M 795.0 225.0C795.0 227.761424 797.238576 230.0 800.0 230.0C802.761424 230.0 805.0 227.761424 805.0 225.0C805.0 222.238576 802.761424 220.0 800.0 220.0C797.238576 220.0 795.0 222.238576 795.0 225.0z"/>
<path stroke="000" stroke-width="0.5" fill="ffffff" d="M 795.0 325.0C795.0 327.761424 797.238576 330.0 800.0 330.0C802.761424 330.0 805.0 327.761424 805.0 325.0C805.0 322.238576 802.761424 320.0 800.0 320.0C797.238576 320.0 795.0 322.238576 795.0 325.0z"/>
<path stroke="000" fill="ffffff" d="M 650.0 275.0L660.0 295.0L670.0 310.0L680.0 320.0L700.0 325.0L730.0 310.0"/>
<path stroke="000" stroke-width="0.5" fill="ffffff" d="M 645.0 275.0C645.0 277.761424 647.238576 280.0 650.0 280.0C652.761424 280.0 655.0 277.761424 655.0 275.0C655.0 272.238576 652.761424 270.0 650.0 270.0C647.238576 270.0 645.0 272.238576 645.0 275.0z"/>
<path stroke="000" stroke-width="0.5" fill="ffffff" d="M 655.0 295.0C655.0 297.761424 657.238576 300.0 660.0 300.0C662.761424 300.0 665.0 297.761424 665.0 295.0C665.0 292.238576 662.761424 290.0 660.0 290.0C657.238576 290.0 655.0 292.238576 655.0 295.0z"/>
<path stroke="000" stroke-width="0.5" fill="ffffff" d="M 665.0 310.0C665.0 312.761424 667.238576 315.0 670.0 315.0C672.761424 315.0 675.0 312.761424 675.0 310.0C675.0 307.23857599999997 672.761424 305.0 670.0 305.0C667.238576 305.0 665.0 307.23857599999997 665.0 310.0z"/>
<path stroke="000" stroke-width="0.5" fill="ffffff" d="M 675.0 320.0C675.0 322.76142400000003 677.238576 325.0 680.0 325.0C682.761424 325.0 685.0 322.76142400000003 685.0 320.0C685.0 317.238576 682.761424 315.0 680.0 315.0C677.238576 315.0 675.0 317.238576 675.0 320.0z"/>
<path stroke="000" stroke-width="0.5" fill="ffffff" d="M 695.0 325.0C695.0 327.761424 697.238576 330.0 700.0 330.0C702.761424 330.0 705.0 327.761424 705.0 325.0C705.0 322.238576 702.761424 320.0 700.0 320.0C697.238576 320.0 695.0 322.238576 695.0 325.0z"/>
<path stroke="000" stroke-width="0.5" fill="ffffff" d="M 725.0 310.0C725.0 312.761424 727.238576 315.0 730.0 315.0C732.761424 315.0 735.0 312.761424 735.0 310.0C735.0 307.23857599999997 732.761424 305.0 730.0 305.0C727.238576 305.0 725.0 307.23857599999997 725.0 310.0z"/>
</g>
</svg>