<?xml version="1.0" encoding="utf-8"?>
<svg version="1.2" baseProfile="tiny" id="openrndr-svg" xmlns="http://www.w3.org/2000/svg" xmlns:xlink="http://www.w3.org/1999/xlink" x="0.0" y="0.0" height="600.0" width="1200.0" ><g >
<path fill="none" stroke="#ffc0cb" d="M 984.0225811360003 412.5390576960002L913.8687655360003 412.5390576960002"/>
<path fill="none" stroke="#ffc0cb" d="M 984.0225811360003 412.5390576960002L927.8995286560003 440.60058393600025"/>
<path fill="none" stroke="#ffc0cb" d="M 984.0225811360003 412.5390576960002L941.9302917760003 461.64672861600025"/>
<path fill="none" stroke="#ffc0cb" d="M 984.0225811360003 412.5390576960002L955.9610548960004 475.67749173600026"/>
<path fill="none" stroke="#ffc0cb" d="M 984.0225811360003 412.5390576960002L984.0225811360003 482.69287329600024"/>
<path fill="none" stroke="#ffc0cb" d="M 1124.3302123360004 342.3852420960002L1026.1148704960003 461.64672861600025"/>
<path fill="none" stroke="#ffc0cb" d="M 1124.3302123360004 482.69287329600024L1026.1148704960003 461.64672861600025"/>
<path stroke-width="2.0" fill="none" stroke="#000000" d="M 984.0225811360003 412.5390576960002L1124.3302123360004 342.3852420960002L1124.3302123360004 482.69287329600024"/>
<path fill="#ffffff" stroke="#000000" d="M 977.0071995760004 412.5390576960002C977.0071995760004 416.4135462977885 980.1480925342121 419.5544392560002 984.0225811360003 419.5544392560002C987.8970697377886 419.5544392560002 991.0379626960004 416.4135462977885 991.0379626960004 412.5390576960002C991.0379626960004 408.6645690942119 987.8970697377886 405.52367613600023 984.0225811360003 405.52367613600023C980.1480925342121 405.52367613600023 977.0071995760004 408.6645690942119 977.0071995760004 412.5390576960002z"/>
<path fill="#ffffff" stroke="#000000" d="M 1117.3148307760005 342.3852420960002C1117.3148307760005 346.2597306977884 1120.4557237342121 349.40062365600016 1124.3302123360004 349.40062365600016C1128.2047009377889 349.40062365600016 1131.3455938960005 346.2597306977884 1131.3455938960005 342.3852420960002C1131.3455938960005 338.5107534942119 1128.2047009377889 335.36986053600015 1124.3302123360004 335.36986053600015C1120.4557237342121 335.36986053600015 1117.3148307760005 338.5107534942119 1117.3148307760005 342.3852420960002z"/>
<path fill="#ffffff" stroke="#000000" d="M 1117.3148307760005 482.69287329600024C1117.3148307760005 486.56736189778854 1120.4557237342121 489.7082548560003 1124.3302123360004 489.7082548560003C1128.2047009377889 489.7082548560003 1131.3455938960005 486.56736189778854 1131.3455938960005 482.69287329600024C1131.3455938960005 478.818384694212 1128.2047009377889 475.67749173600026 1124.3302123360004 475.67749173600026C1120.4557237342121 475.67749173600026 1117.3148307760005 478.818384694212 1117.3148307760005 482.69287329600024z"/>
<path stroke-width="2.0" fill="none" stroke="#000000" d="M 913.8687655360003 412.5390576960002L927.8995286560003 440.60058393600025L941.9302917760003 461.64672861600025L955.9610548960004 475.67749173600026L984.0225811360003 482.69287329600024L1026.1148704960003 461.64672861600025"/>
<path fill="#ffffff" stroke="#000000" d="M 906.8533839760003 412.5390576960002C906.8533839760003 416.4135462977885 909.994276934212 419.5544392560002 913.8687655360003 419.5544392560002C917.7432541377887 419.5544392560002 920.8841470960003 416.4135462977885 920.8841470960003 412.5390576960002C920.8841470960003 408.6645690942119 917.7432541377887 405.52367613600023 913.8687655360003 405.52367613600023C909.994276934212 405.52367613600023 906.8533839760003 408.6645690942119 906.8533839760003 412.5390576960002z"/>
<path fill="#ffffff" stroke="#000000" d="M 920.8841470960003 440.60058393600025C920.8841470960003 444.47507253778855 924.025040054212 447.61596549600023 927.8995286560003 447.61596549600023C931.7740172577886 447.61596549600023 934.9149102160003 444.47507253778855 934.9149102160003 440.60058393600025C934.9149102160003 436.72609533421195 931.7740172577886 433.5852023760002 927.8995286560003 433.5852023760002C924.025040054212 433.5852023760002 920.8841470960003 436.72609533421195 920.8841470960003 440.60058393600025z"/>
<path fill="#ffffff" stroke="#000000" d="M 934.9149102160003 461.64672861600025C934.9149102160003 465.52121721778855 938.0558031742121 468.6621101760002 941.9302917760003 468.6621101760002C945.8047803777886 468.6621101760002 948.9456733360003 465.52121721778855 948.9456733360003 461.64672861600025C948.9456733360003 457.77224001421195 945.8047803777886 454.6313470560002 941.9302917760003 454.6313470560002C938.0558031742121 454.6313470560002 934.9149102160003 457.77224001421195 934.9149102160003 461.64672861600025z"/>
<path fill="#ffffff" stroke="#000000" d="M 948.9456733360004 475.67749173600026C948.9456733360004 479.55198033778856 952.086566294212 482.69287329600024 955.9610548960004 482.69287329600024C959.8355434977886 482.69287329600024 962.9764364560003 479.55198033778856 962.9764364560003 475.67749173600026C962.9764364560003 471.80300313421196 959.8355434977886 468.6621101760003 955.9610548960004 468.6621101760003C952.086566294212 468.6621101760003 948.9456733360004 471.80300313421196 948.9456733360004 475.67749173600026z"/>
<path fill="#ffffff" stroke="#000000" d="M 977.0071995760004 482.69287329600024C977.0071995760004 486.56736189778854 980.1480925342121 489.7082548560003 984.0225811360003 489.7082548560003C987.8970697377886 489.7082548560003 991.0379626960004 486.56736189778854 991.0379626960004 482.69287329600024C991.0379626960004 478.818384694212 987.8970697377886 475.67749173600026 984.0225811360003 475.67749173600026C980.1480925342121 475.67749173600026 977.0071995760004 478.818384694212 977.0071995760004 482.69287329600024z"/>
<path fill="#ffffff" stroke="#000000" d="M 1019.0994889360004 461.64672861600025C1019.0994889360004 465.52121721778855 1022.2403818942121 468.6621101760002 1026.1148704960003 468.6621101760002C1029.9893590977886 468.6621101760002 1033.1302520560005 465.52121721778855 1033.1302520560005 461.64672861600025C1033.1302520560005 457.77224001421195 1029.9893590977886 454.6313470560002 1026.1148704960003 454.6313470560002C1022.2403818942121 454.6313470560002 1019.0994889360004 457.77224001421195 1019.0994889360004 461.64672861600025z"/>
<path stroke-width="2.0" fill="#32628d" d="M 142.17679393599985 482.69287329600024L259.0998199359999 482.69287329600024L259.0998199359999 365.7698472960002L142.17679393599985 365.7698472960002L142.17679393599985 482.69287329600024z"/>
<path stroke-width="2.0" fill="#365a8c" d="M 259.0998199359999 482.69287329600024L376.022845936 482.69287329600024L376.022845936 365.7698472960002L259.0998199359999 365.7698472960002L259.0998199359999 482.69287329600024z"/>
<path stroke-width="2.0" fill="#355c8c" d="M 376.022845936 482.69287329600024L492.94587193600006 482.69287329600024L492.94587193600006 365.7698472960002L376.022845936 365.7698472960002L376.022845936 482.69287329600024z"/>
<path stroke-width="2.0" fill="#33618d" d="M 492.94587193600006 482.69287329600024L609.8688979360002 482.69287329600024L609.8688979360002 365.7698472960002L492.94587193600006 365.7698472960002L492.94587193600006 482.69287329600024z"/>
<path stroke-width="2.0" fill="#32628d" d="M 609.8688979360002 482.69287329600024L726.7919239360002 482.69287329600024L726.7919239360002 365.7698472960002L609.8688979360002 365.7698472960002L609.8688979360002 482.69287329600024z"/>
<path stroke-width="2.0" fill="#355c8c" d="M 726.7919239360002 482.69287329600024L843.7149499360003 482.69287329600024L843.7149499360003 365.7698472960002L726.7919239360002 365.7698472960002L726.7919239360002 482.69287329600024z"/>
<path stroke-width="2.0" fill="#fde724" d="M 142.17679393599985 365.7698472960002L259.0998199359999 365.7698472960002L259.0998199359999 248.8468212960001L142.17679393599985 248.8468212960001L142.17679393599985 365.7698472960002z"/>
<path stroke-width="2.0" fill="#f8e621" d="M 259.0998199359999 365.7698472960002L376.022845936 365.7698472960002L376.022845936 248.8468212960001L259.0998199359999 248.8468212960001L259.0998199359999 365.7698472960002z"/>
<path stroke-width="2.0" fill="#f3e51e" d="M 376.022845936 365.7698472960002L492.94587193600006 365.7698472960002L492.94587193600006 248.8468212960001L376.022845936 248.8468212960001L376.022845936 365.7698472960002z"/>
<path stroke-width="2.0" fill="#e9e419" d="M 492.94587193600006 365.7698472960002L609.8688979360002 365.7698472960002L609.8688979360002 248.8468212960001L492.94587193600006 248.8468212960001L492.94587193600006 365.7698472960002z"/>
<path stroke-width="2.0" fill="#b7dd29" d="M 609.8688979360002 365.7698472960002L726.7919239360002 365.7698472960002L726.7919239360002 248.8468212960001L609.8688979360002 248.8468212960001L609.8688979360002 365.7698472960002z"/>
<path stroke-width="2.0" fill="#42be71" d="M 726.7919239360002 365.7698472960002L843.7149499360003 365.7698472960002L843.7149499360003 248.8468212960001L726.7919239360002 248.8468212960001L726.7919239360002 365.7698472960002z"/>
<path stroke-width="2.0" fill="#fde724" d="M 142.17679393599985 248.8468212960001L259.0998199359999 248.8468212960001L259.0998199359999 131.92379529600004L142.17679393599985 131.92379529600004L142.17679393599985 248.8468212960001z"/>
<path stroke-width="2.0" fill="#f8e621" d="M 259.0998199359999 248.8468212960001L376.022845936 248.8468212960001L376.022845936 131.92379529600004L259.0998199359999 131.92379529600004L259.0998199359999 248.8468212960001z"/>
<path stroke-width="2.0" fill="#f3e51e" d="M 376.022845936 248.8468212960001L492.94587193600006 248.8468212960001L492.94587193600006 131.92379529600004L376.022845936 131.92379529600004L376.022845936 248.8468212960001z"/>
<path stroke-width="2.0" fill="#e9e419" d="M 492.94587193600006 248.8468212960001L609.8688979360002 248.8468212960001L609.8688979360002 131.92379529600004L492.94587193600006 131.92379529600004L492.94587193600006 248.8468212960001z"/>
<path stroke-width="2.0" fill="#b7dd29" d="M 609.8688979360002 248.8468212960001L726.7919239360002 248.8468212960001L726.7919239360002 131.92379529600004L609.8688979360002 131.92379529600004L609.8688979360002 248.8468212960001z"/>
<path stroke-width="2.0" fill="#42be71" d="M 726.7919239360002 248.8468212960001L843.7149499360003 248.8468212960001L843.7149499360003 131.92379529600004L726.7919239360002 131.92379529600004L726.7919239360002 248.8468212960001z"/>
<path fill="none" stroke="#000000" d="M 142.17679393599985 365.7698472960002L843.7149499360003 365.7698472960002"/>
<path fill="none" stroke="#000000" d="M 142.17679393599985 248.8468212960001L843.7149499360003 248.8468212960001"/>
<path fill="none" stroke="#000000" d="M 259.0998199359999 482.69287329600024L259.0998199359999 131.92379529600004"/>
<path fill="none" stroke="#000000" d="M 376.022845936 482.69287329600024L376.022845936 131.92379529600004"/>
<path fill="none" stroke="#000000" d="M 492.94587193600006 482.69287329600024L492.94587193600006 131.92379529600004"/>
<path fill="none" stroke="#000000" d="M 609.8688979360002 482.69287329600024L609.8688979360002 131.92379529600004"/>
<path fill="none" stroke="#000000" d="M 726.7919239360002 482.69287329600024L726.7919239360002 131.92379529600004"/>
<path stroke-width="2.0" fill="none" stroke="#000000" d="M 142.17679393599985 482.69287329600024L843.7149499360003 482.69287329600024L843.7149499360003 131.92379529600004L142.17679393599985 131.92379529600004L142.17679393599985 482.69287329600024z"/>
<path stroke-width="2.0" fill="#440154" d="M 72.02297833599981 482.69287329600024L100.08450457599983 482.69287329600024L100.08450457599983 480.637585729594L72.02297833599981 480.637585729594L72.02297833599981 482.69287329600024z"/>
<path stroke-width="2.0" fill="#440154" d="M 72.02297833599981 481.32268158506275L100.08450457599983 481.32268158506275L100.08450457599983 479.2673940186565L72.02297833599981 479.2673940186565L72.02297833599981 481.32268158506275z"/>
<path stroke-width="2.0" fill="#440255" d="M 72.02297833599981 479.95248987412526L100.08450457599983 479.95248987412526L100.08450457599983 477.897202307719L72.02297833599981 477.897202307719L72.02297833599981 479.95248987412526z"/>
<path stroke-width="2.0" fill="#440357" d="M 72.02297833599981 478.5822981631877L100.08450457599983 478.5822981631877L100.08450457599983 476.5270105967815L72.02297833599981 476.5270105967815L72.02297833599981 478.5822981631877z"/>
<path stroke-width="2.0" fill="#450558" d="M 72.02297833599981 477.2121064522502L100.08450457599983 477.2121064522502L100.08450457599983 475.15681888584396L72.02297833599981 475.15681888584396L72.02297833599981 477.2121064522502z"/>
<path stroke-width="2.0" fill="#45065a" d="M 72.02297833599981 475.84191474131273L100.08450457599983 475.84191474131273L100.08450457599983 473.78662717490647L72.02297833599981 473.78662717490647L72.02297833599981 475.84191474131273z"/>
<path stroke-width="2.0" fill="#45085b" d="M 72.02297833599981 474.47172303037524L100.08450457599983 474.47172303037524L100.08450457599983 472.416435463969L72.02297833599981 472.416435463969L72.02297833599981 474.47172303037524z"/>
<path stroke-width="2.0" fill="#46095c" d="M 72.02297833599981 473.10153131943775L100.08450457599983 473.10153131943775L100.08450457599983 471.0462437530315L72.02297833599981 471.0462437530315L72.02297833599981 473.10153131943775z"/>
<path stroke-width="2.0" fill="#460b5e" d="M 72.02297833599981 471.73133960850026L100.08450457599983 471.73133960850026L100.08450457599983 469.676052042094L72.02297833599981 469.676052042094L72.02297833599981 471.73133960850026z"/>
<path stroke-width="2.0" fill="#460c5f" d="M 72.02297833599981 470.3611478975627L100.08450457599983 470.3611478975627L100.08450457599983 468.3058603311565L72.02297833599981 468.3058603311565L72.02297833599981 470.3611478975627z"/>
<path stroke-width="2.0" fill="#460e61" d="M 72.02297833599981 468.9909561866252L100.08450457599983 468.9909561866252L100.08450457599983 466.93566862021896L72.02297833599981 466.93566862021896L72.02297833599981 468.9909561866252z"/>
<path stroke-width="2.0" fill="#470f62" d="M 72.02297833599981 467.62076447568774L100.08450457599983 467.62076447568774L100.08450457599983 465.5654769092815L72.02297833599981 465.5654769092815L72.02297833599981 467.62076447568774z"/>
<path stroke-width="2.0" fill="#471163" d="M 72.02297833599981 466.25057276475025L100.08450457599983 466.25057276475025L100.08450457599983 464.195285198344L72.02297833599981 464.195285198344L72.02297833599981 466.25057276475025z"/>
<path stroke-width="2.0" fill="#471265" d="M 72.02297833599981 464.88038105381275L100.08450457599983 464.88038105381275L100.08450457599983 462.8250934874065L72.02297833599981 462.8250934874065L72.02297833599981 464.88038105381275z"/>
<path stroke-width="2.0" fill="#471466" d="M 72.02297833599981 463.5101893428752L100.08450457599983 463.5101893428752L100.08450457599983 461.454901776469L72.02297833599981 461.454901776469L72.02297833599981 463.5101893428752z"/>
<path stroke-width="2.0" fill="#471567" d="M 72.02297833599981 462.1399976319377L100.08450457599983 462.1399976319377L100.08450457599983 460.08471006553145L72.02297833599981 460.08471006553145L72.02297833599981 462.1399976319377z"/>
<path stroke-width="2.0" fill="#471669" d="M 72.02297833599981 460.7698059210002L100.08450457599983 460.7698059210002L100.08450457599983 458.71451835459396L72.02297833599981 458.71451835459396L72.02297833599981 460.7698059210002z"/>
<path stroke-width="2.0" fill="#47186a" d="M 72.02297833599981 459.39961421006274L100.08450457599983 459.39961421006274L100.08450457599983 457.3443266436565L72.02297833599981 457.3443266436565L72.02297833599981 459.39961421006274z"/>
<path stroke-width="2.0" fill="#48196b" d="M 72.02297833599981 458.02942249912525L100.08450457599983 458.02942249912525L100.08450457599983 455.974134932719L72.02297833599981 455.974134932719L72.02297833599981 458.02942249912525z"/>
<path stroke-width="2.0" fill="#481a6c" d="M 72.02297833599981 456.65923078818776L100.08450457599983 456.65923078818776L100.08450457599983 454.6039432217815L72.02297833599981 454.6039432217815L72.02297833599981 456.65923078818776z"/>
<path stroke-width="2.0" fill="#481c6e" d="M 72.02297833599981 455.2890390772502L100.08450457599983 455.2890390772502L100.08450457599983 453.233751510844L72.02297833599981 453.233751510844L72.02297833599981 455.2890390772502z"/>
<path stroke-width="2.0" fill="#481d6f" d="M 72.02297833599981 453.9188473663127L100.08450457599983 453.9188473663127L100.08450457599983 451.86355979990645L72.02297833599981 451.86355979990645L72.02297833599981 453.9188473663127z"/>
<path stroke-width="2.0" fill="#481e70" d="M 72.02297833599981 452.5486556553752L100.08450457599983 452.5486556553752L100.08450457599983 450.49336808896896L72.02297833599981 450.49336808896896L72.02297833599981 452.5486556553752z"/>
<path stroke-width="2.0" fill="#482071" d="M 72.02297833599981 451.17846394443774L100.08450457599983 451.17846394443774L100.08450457599983 449.1231763780315L72.02297833599981 449.1231763780315L72.02297833599981 451.17846394443774z"/>
<path stroke-width="2.0" fill="#482172" d="M 72.02297833599981 449.80827223350025L100.08450457599983 449.80827223350025L100.08450457599983 447.752984667094L72.02297833599981 447.752984667094L72.02297833599981 449.80827223350025z"/>
<path stroke-width="2.0" fill="#482273" d="M 72.02297833599981 448.4380805225627L100.08450457599983 448.4380805225627L100.08450457599983 446.3827929561565L72.02297833599981 446.3827929561565L72.02297833599981 448.4380805225627z"/>
<path stroke-width="2.0" fill="#482374" d="M 72.02297833599981 447.0678888116252L100.08450457599983 447.0678888116252L100.08450457599983 445.01260124521895L72.02297833599981 445.01260124521895L72.02297833599981 447.0678888116252z"/>
<path stroke-width="2.0" fill="#472575" d="M 72.02297833599981 445.6976971006877L100.08450457599983 445.6976971006877L100.08450457599983 443.64240953428146L72.02297833599981 443.64240953428146L72.02297833599981 445.6976971006877z"/>
<path stroke-width="2.0" fill="#472676" d="M 72.02297833599981 444.32750538975023L100.08450457599983 444.32750538975023L100.08450457599983 442.27221782334396L72.02297833599981 442.27221782334396L72.02297833599981 444.32750538975023z"/>
<path stroke-width="2.0" fill="#472777" d="M 72.02297833599981 442.95731367881274L100.08450457599983 442.95731367881274L100.08450457599983 440.9020261124065L72.02297833599981 440.9020261124065L72.02297833599981 442.95731367881274z"/>
<path stroke-width="2.0" fill="#472878" d="M 72.02297833599981 441.5871219678752L100.08450457599983 441.5871219678752L100.08450457599983 439.531834401469L72.02297833599981 439.531834401469L72.02297833599981 441.5871219678752z"/>
<path stroke-width="2.0" fill="#472a79" d="M 72.02297833599981 440.2169302569377L100.08450457599983 440.2169302569377L100.08450457599983 438.1616426905315L72.02297833599981 438.1616426905315L72.02297833599981 440.2169302569377z"/>
<path stroke-width="2.0" fill="#472b7a" d="M 72.02297833599981 438.8467385460002L100.08450457599983 438.8467385460002L100.08450457599983 436.79145097959395L72.02297833599981 436.79145097959395L72.02297833599981 438.8467385460002z"/>
<path stroke-width="2.0" fill="#472c7b" d="M 72.02297833599981 437.4765468350627L100.08450457599983 437.4765468350627L100.08450457599983 435.42125926865646L72.02297833599981 435.42125926865646L72.02297833599981 437.4765468350627z"/>
<path stroke-width="2.0" fill="#462d7c" d="M 72.02297833599981 436.10635512412523L100.08450457599983 436.10635512412523L100.08450457599983 434.05106755771897L72.02297833599981 434.05106755771897L72.02297833599981 436.10635512412523z"/>
<path stroke-width="2.0" fill="#462f7c" d="M 72.02297833599981 434.7361634131877L100.08450457599983 434.7361634131877L100.08450457599983 432.6808758467815L72.02297833599981 432.6808758467815L72.02297833599981 434.7361634131877z"/>
<path stroke-width="2.0" fill="#46307d" d="M 72.02297833599981 433.3659717022502L100.08450457599983 433.3659717022502L100.08450457599983 431.310684135844L72.02297833599981 431.310684135844L72.02297833599981 433.3659717022502z"/>
<path stroke-width="2.0" fill="#46317e" d="M 72.02297833599981 431.9957799913127L100.08450457599983 431.9957799913127L100.08450457599983 429.94049242490644L72.02297833599981 429.94049242490644L72.02297833599981 431.9957799913127z"/>
<path stroke-width="2.0" fill="#45327f" d="M 72.02297833599981 430.6255882803752L100.08450457599983 430.6255882803752L100.08450457599983 428.57030071396895L72.02297833599981 428.57030071396895L72.02297833599981 430.6255882803752z"/>
<path stroke-width="2.0" fill="#45347f" d="M 72.02297833599981 429.2553965694377L100.08450457599983 429.2553965694377L100.08450457599983 427.20010900303146L72.02297833599981 427.20010900303146L72.02297833599981 429.2553965694377z"/>
<path stroke-width="2.0" fill="#453580" d="M 72.02297833599981 427.88520485850023L100.08450457599983 427.88520485850023L100.08450457599983 425.82991729209397L72.02297833599981 425.82991729209397L72.02297833599981 427.88520485850023z"/>
<path stroke-width="2.0" fill="#453681" d="M 72.02297833599981 426.5150131475627L100.08450457599983 426.5150131475627L100.08450457599983 424.4597255811565L72.02297833599981 424.4597255811565L72.02297833599981 426.5150131475627z"/>
<path stroke-width="2.0" fill="#443781" d="M 72.02297833599981 425.1448214366252L100.08450457599983 425.1448214366252L100.08450457599983 423.08953387021893L72.02297833599981 423.08953387021893L72.02297833599981 425.1448214366252z"/>
<path stroke-width="2.0" fill="#443982" d="M 72.02297833599981 423.7746297256877L100.08450457599983 423.7746297256877L100.08450457599983 421.71934215928144L72.02297833599981 421.71934215928144L72.02297833599981 423.7746297256877z"/>
<path stroke-width="2.0" fill="#433a83" d="M 72.02297833599981 422.4044380147502L100.08450457599983 422.4044380147502L100.08450457599983 420.34915044834395L72.02297833599981 420.34915044834395L72.02297833599981 422.4044380147502z"/>
<path stroke-width="2.0" fill="#433b83" d="M 72.02297833599981 421.0342463038127L100.08450457599983 421.0342463038127L100.08450457599983 418.97895873740646L72.02297833599981 418.97895873740646L72.02297833599981 421.0342463038127z"/>
<path stroke-width="2.0" fill="#433c84" d="M 72.02297833599981 419.66405459287523L100.08450457599983 419.66405459287523L100.08450457599983 417.60876702646897L72.02297833599981 417.60876702646897L72.02297833599981 419.66405459287523z"/>
<path stroke-width="2.0" fill="#423d84" d="M 72.02297833599981 418.2938628819377L100.08450457599983 418.2938628819377L100.08450457599983 416.2385753155314L72.02297833599981 416.2385753155314L72.02297833599981 418.2938628819377z"/>
<path stroke-width="2.0" fill="#423e85" d="M 72.02297833599981 416.9236711710002L100.08450457599983 416.9236711710002L100.08450457599983 414.86838360459393L72.02297833599981 414.86838360459393L72.02297833599981 416.9236711710002z"/>
<path stroke-width="2.0" fill="#424085" d="M 72.02297833599981 415.5534794600627L100.08450457599983 415.5534794600627L100.08450457599983 413.49819189365644L72.02297833599981 413.49819189365644L72.02297833599981 415.5534794600627z"/>
<path stroke-width="2.0" fill="#414186" d="M 72.02297833599981 414.1832877491252L100.08450457599983 414.1832877491252L100.08450457599983 412.12800018271895L72.02297833599981 412.12800018271895L72.02297833599981 414.1832877491252z"/>
<path stroke-width="2.0" fill="#414286" d="M 72.02297833599981 412.8130960381877L100.08450457599983 412.8130960381877L100.08450457599983 410.75780847178146L72.02297833599981 410.75780847178146L72.02297833599981 412.8130960381877z"/>
<path stroke-width="2.0" fill="#404387" d="M 72.02297833599981 411.4429043272502L100.08450457599983 411.4429043272502L100.08450457599983 409.38761676084397L72.02297833599981 409.38761676084397L72.02297833599981 411.4429043272502z"/>
<path stroke-width="2.0" fill="#404487" d="M 72.02297833599981 410.0727126163127L100.08450457599983 410.0727126163127L100.08450457599983 408.0174250499065L72.02297833599981 408.0174250499065L72.02297833599981 410.0727126163127z"/>
<path stroke-width="2.0" fill="#3f4587" d="M 72.02297833599981 408.7025209053752L100.08450457599983 408.7025209053752L100.08450457599983 406.64723333896893L72.02297833599981 406.64723333896893L72.02297833599981 408.7025209053752z"/>
<path stroke-width="2.0" fill="#3f4788" d="M 72.02297833599981 407.3323291944377L100.08450457599983 407.3323291944377L100.08450457599983 405.27704162803144L72.02297833599981 405.27704162803144L72.02297833599981 407.3323291944377z"/>
<path stroke-width="2.0" fill="#3e4888" d="M 72.02297833599981 405.9621374835002L100.08450457599983 405.9621374835002L100.08450457599983 403.90684991709395L72.02297833599981 403.90684991709395L72.02297833599981 405.9621374835002z"/>
<path stroke-width="2.0" fill="#3e4989" d="M 72.02297833599981 404.59194577256267L100.08450457599983 404.59194577256267L100.08450457599983 402.53665820615646L72.02297833599981 402.53665820615646L72.02297833599981 404.59194577256267z"/>
<path stroke-width="2.0" fill="#3d4a89" d="M 72.02297833599981 403.2217540616252L100.08450457599983 403.2217540616252L100.08450457599983 401.16646649521897L72.02297833599981 401.16646649521897L72.02297833599981 403.2217540616252z"/>
<path stroke-width="2.0" fill="#3d4b89" d="M 72.02297833599981 401.8515623506877L100.08450457599983 401.8515623506877L100.08450457599983 399.7962747842814L72.02297833599981 399.7962747842814L72.02297833599981 401.8515623506877z"/>
<path stroke-width="2.0" fill="#3d4c89" d="M 72.02297833599981 400.4813706397502L100.08450457599983 400.4813706397502L100.08450457599983 398.42608307334393L72.02297833599981 398.42608307334393L72.02297833599981 400.4813706397502z"/>
<path stroke-width="2.0" fill="#3c4d8a" d="M 72.02297833599981 399.1111789288127L100.08450457599983 399.1111789288127L100.08450457599983 397.05589136240644L72.02297833599981 397.05589136240644L72.02297833599981 399.1111789288127z"/>
<path stroke-width="2.0" fill="#3c4e8a" d="M 72.02297833599981 397.74098721787516L100.08450457599983 397.74098721787516L100.08450457599983 395.68569965146895L72.02297833599981 395.68569965146895L72.02297833599981 397.74098721787516z"/>
<path stroke-width="2.0" fill="#3b508a" d="M 72.02297833599981 396.37079550693767L100.08450457599983 396.37079550693767L100.08450457599983 394.31550794053146L72.02297833599981 394.31550794053146L72.02297833599981 396.37079550693767z"/>
<path stroke-width="2.0" fill="#3b518a" d="M 72.02297833599981 395.0006037960002L100.08450457599983 395.0006037960002L100.08450457599983 392.9453162295939L72.02297833599981 392.9453162295939L72.02297833599981 395.0006037960002z"/>
<path stroke-width="2.0" fill="#3a528b" d="M 72.02297833599981 393.6304120850627L100.08450457599983 393.6304120850627L100.08450457599983 391.5751245186564L72.02297833599981 391.5751245186564L72.02297833599981 393.6304120850627z"/>
<path stroke-width="2.0" fill="#3a538b" d="M 72.02297833599981 392.2602203741252L100.08450457599983 392.2602203741252L100.08450457599983 390.20493280771893L72.02297833599981 390.20493280771893L72.02297833599981 392.2602203741252z"/>
<path stroke-width="2.0" fill="#39548b" d="M 72.02297833599981 390.8900286631877L100.08450457599983 390.8900286631877L100.08450457599983 388.83474109678144L72.02297833599981 388.83474109678144L72.02297833599981 390.8900286631877z"/>
<path stroke-width="2.0" fill="#39558b" d="M 72.02297833599981 389.5198369522502L100.08450457599983 389.5198369522502L100.08450457599983 387.46454938584395L72.02297833599981 387.46454938584395L72.02297833599981 389.5198369522502z"/>
<path stroke-width="2.0" fill="#38568b" d="M 72.02297833599981 388.14964524131267L100.08450457599983 388.14964524131267L100.08450457599983 386.0943576749064L72.02297833599981 386.0943576749064L72.02297833599981 388.14964524131267z"/>
<path stroke-width="2.0" fill="#38578c" d="M 72.02297833599981 386.7794535303752L100.08450457599983 386.7794535303752L100.08450457599983 384.7241659639689L72.02297833599981 384.7241659639689L72.02297833599981 386.7794535303752z"/>
<path stroke-width="2.0" fill="#37588c" d="M 72.02297833599981 385.4092618194377L100.08450457599983 385.4092618194377L100.08450457599983 383.3539742530314L72.02297833599981 383.3539742530314L72.02297833599981 385.4092618194377z"/>
<path stroke-width="2.0" fill="#37598c" d="M 72.02297833599981 384.0390701085002L100.08450457599983 384.0390701085002L100.08450457599983 381.98378254209393L72.02297833599981 381.98378254209393L72.02297833599981 384.0390701085002z"/>
<path stroke-width="2.0" fill="#365a8c" d="M 72.02297833599981 382.6688783975627L100.08450457599983 382.6688783975627L100.08450457599983 380.61359083115644L72.02297833599981 380.61359083115644L72.02297833599981 382.6688783975627z"/>
<path stroke-width="2.0" fill="#365b8c" d="M 72.02297833599981 381.29868668662516L100.08450457599983 381.29868668662516L100.08450457599983 379.2433991202189L72.02297833599981 379.2433991202189L72.02297833599981 381.29868668662516z"/>
<path stroke-width="2.0" fill="#355c8c" d="M 72.02297833599981 379.92849497568767L100.08450457599983 379.92849497568767L100.08450457599983 377.87320740928146L72.02297833599981 377.87320740928146L72.02297833599981 379.92849497568767z"/>
<path stroke-width="2.0" fill="#355d8c" d="M 72.02297833599981 378.5583032647502L100.08450457599983 378.5583032647502L100.08450457599983 376.5030156983439L72.02297833599981 376.5030156983439L72.02297833599981 378.5583032647502z"/>
<path stroke-width="2.0" fill="#345e8d" d="M 72.02297833599981 377.1881115538127L100.08450457599983 377.1881115538127L100.08450457599983 375.1328239874064L72.02297833599981 375.1328239874064L72.02297833599981 377.1881115538127z"/>
<path stroke-width="2.0" fill="#345f8d" d="M 72.02297833599981 375.8179198428752L100.08450457599983 375.8179198428752L100.08450457599983 373.76263227646893L72.02297833599981 373.76263227646893L72.02297833599981 375.8179198428752z"/>
<path stroke-width="2.0" fill="#33608d" d="M 72.02297833599981 374.44772813193765L100.08450457599983 374.44772813193765L100.08450457599983 372.39244056553144L72.02297833599981 372.39244056553144L72.02297833599981 374.44772813193765z"/>
<path stroke-width="2.0" fill="#33618d" d="M 72.02297833599981 373.07753642100016L100.08450457599983 373.07753642100016L100.08450457599983 371.02224885459395L72.02297833599981 371.02224885459395L72.02297833599981 373.07753642100016z"/>
<path stroke-width="2.0" fill="#32628d" d="M 72.02297833599981 371.70734471006267L100.08450457599983 371.70734471006267L100.08450457599983 369.6520571436564L72.02297833599981 369.6520571436564L72.02297833599981 371.70734471006267z"/>
<path stroke-width="2.0" fill="#32638d" d="M 72.02297833599981 370.3371529991252L100.08450457599983 370.3371529991252L100.08450457599983 368.2818654327189L72.02297833599981 368.2818654327189L72.02297833599981 370.3371529991252z"/>
<path stroke-width="2.0" fill="#31648d" d="M 72.02297833599981 368.9669612881877L100.08450457599983 368.9669612881877L100.08450457599983 366.9116737217814L72.02297833599981 366.9116737217814L72.02297833599981 368.9669612881877z"/>
<path stroke-width="2.0" fill="#31658d" d="M 72.02297833599981 367.59676957725014L100.08450457599983 367.59676957725014L100.08450457599983 365.54148201084394L72.02297833599981 365.54148201084394L72.02297833599981 367.59676957725014z"/>
<path stroke-width="2.0" fill="#31668d" d="M 72.02297833599981 366.22657786631265L100.08450457599983 366.22657786631265L100.08450457599983 364.17129029990645L72.02297833599981 364.17129029990645L72.02297833599981 366.22657786631265z"/>
<path stroke-width="2.0" fill="#30678d" d="M 72.02297833599981 364.85638615537516L100.08450457599983 364.85638615537516L100.08450457599983 362.8010985889689L72.02297833599981 362.8010985889689L72.02297833599981 364.85638615537516z"/>
<path stroke-width="2.0" fill="#30688d" d="M 72.02297833599981 363.4861944444377L100.08450457599983 363.4861944444377L100.08450457599983 361.4309068780314L72.02297833599981 361.4309068780314L72.02297833599981 363.4861944444377z"/>
<path stroke-width="2.0" fill="#2f698d" d="M 72.02297833599981 362.1160027335002L100.08450457599983 362.1160027335002L100.08450457599983 360.0607151670939L72.02297833599981 360.0607151670939L72.02297833599981 362.1160027335002z"/>
<path stroke-width="2.0" fill="#2f6a8d" d="M 72.02297833599981 360.74581102256263L100.08450457599983 360.74581102256263L100.08450457599983 358.6905234561564L72.02297833599981 358.6905234561564L72.02297833599981 360.74581102256263z"/>
<path stroke-width="2.0" fill="#2e6b8e" d="M 72.02297833599981 359.3756193116252L100.08450457599983 359.3756193116252L100.08450457599983 357.32033174521894L72.02297833599981 357.32033174521894L72.02297833599981 359.3756193116252z"/>
<path stroke-width="2.0" fill="#2e6c8e" d="M 72.02297833599981 358.00542760068765L100.08450457599983 358.00542760068765L100.08450457599983 355.9501400342814L72.02297833599981 355.9501400342814L72.02297833599981 358.00542760068765z"/>
<path stroke-width="2.0" fill="#2e6d8e" d="M 72.02297833599981 356.63523588975016L100.08450457599983 356.63523588975016L100.08450457599983 354.5799483233439L72.02297833599981 354.5799483233439L72.02297833599981 356.63523588975016z"/>
<path stroke-width="2.0" fill="#2d6e8e" d="M 72.02297833599981 355.2650441788127L100.08450457599983 355.2650441788127L100.08450457599983 353.2097566124064L72.02297833599981 353.2097566124064L72.02297833599981 355.2650441788127z"/>
<path stroke-width="2.0" fill="#2d6f8e" d="M 72.02297833599981 353.8948524678751L100.08450457599983 353.8948524678751L100.08450457599983 351.8395649014689L72.02297833599981 351.8395649014689L72.02297833599981 353.8948524678751z"/>
<path stroke-width="2.0" fill="#2c708e" d="M 72.02297833599981 352.5246607569377L100.08450457599983 352.5246607569377L100.08450457599983 350.4693731905314L72.02297833599981 350.4693731905314L72.02297833599981 352.5246607569377z"/>
<path stroke-width="2.0" fill="#2c718e" d="M 72.02297833599981 351.15446904600014L100.08450457599983 351.15446904600014L100.08450457599983 349.0991814795939L72.02297833599981 349.0991814795939L72.02297833599981 351.15446904600014z"/>
<path stroke-width="2.0" fill="#2c728e" d="M 72.02297833599981 349.78427733506265L100.08450457599983 349.78427733506265L100.08450457599983 347.72898976865645L72.02297833599981 347.72898976865645L72.02297833599981 349.78427733506265z"/>
<path stroke-width="2.0" fill="#2b738e" d="M 72.02297833599981 348.41408562412516L100.08450457599983 348.41408562412516L100.08450457599983 346.3587980577189L72.02297833599981 346.3587980577189L72.02297833599981 348.41408562412516z"/>
<path stroke-width="2.0" fill="#2b748e" d="M 72.02297833599981 347.0438939131876L100.08450457599983 347.0438939131876L100.08450457599983 344.9886063467814L72.02297833599981 344.9886063467814L72.02297833599981 347.0438939131876z"/>
<path stroke-width="2.0" fill="#2a758e" d="M 72.02297833599981 345.6737022022502L100.08450457599983 345.6737022022502L100.08450457599983 343.6184146358439L72.02297833599981 343.6184146358439L72.02297833599981 345.6737022022502z"/>
<path stroke-width="2.0" fill="#2a768e" d="M 72.02297833599981 344.30351049131264L100.08450457599983 344.30351049131264L100.08450457599983 342.2482229249064L72.02297833599981 342.2482229249064L72.02297833599981 344.30351049131264z"/>
<path stroke-width="2.0" fill="#2a778e" d="M 72.02297833599981 342.93331878037515L100.08450457599983 342.93331878037515L100.08450457599983 340.87803121396894L72.02297833599981 340.87803121396894L72.02297833599981 342.93331878037515z"/>
<path stroke-width="2.0" fill="#29788e" d="M 72.02297833599981 341.56312706943766L100.08450457599983 341.56312706943766L100.08450457599983 339.5078395030314L72.02297833599981 339.5078395030314L72.02297833599981 341.56312706943766z"/>
<path stroke-width="2.0" fill="#29798e" d="M 72.02297833599981 340.19293535850016L100.08450457599983 340.19293535850016L100.08450457599983 338.1376477920939L72.02297833599981 338.1376477920939L72.02297833599981 340.19293535850016z"/>
<path stroke-width="2.0" fill="#287a8e" d="M 72.02297833599981 338.8227436475627L100.08450457599983 338.8227436475627L100.08450457599983 336.7674560811564L72.02297833599981 336.7674560811564L72.02297833599981 338.8227436475627z"/>
<path stroke-width="2.0" fill="#287a8e" d="M 72.02297833599981 337.4525519366251L100.08450457599983 337.4525519366251L100.08450457599983 335.39726437021886L72.02297833599981 335.39726437021886L72.02297833599981 337.4525519366251z"/>
<path stroke-width="2.0" fill="#287b8e" d="M 72.02297833599981 336.0823602256877L100.08450457599983 336.0823602256877L100.08450457599983 334.02707265928143L72.02297833599981 334.02707265928143L72.02297833599981 336.0823602256877z"/>
<path stroke-width="2.0" fill="#277c8e" d="M 72.02297833599981 334.71216851475015L100.08450457599983 334.71216851475015L100.08450457599983 332.6568809483439L72.02297833599981 332.6568809483439L72.02297833599981 334.71216851475015z"/>
<path stroke-width="2.0" fill="#277d8e" d="M 72.02297833599981 333.34197680381266L100.08450457599983 333.34197680381266L100.08450457599983 331.2866892374064L72.02297833599981 331.2866892374064L72.02297833599981 333.34197680381266z"/>
<path stroke-width="2.0" fill="#277e8e" d="M 72.02297833599981 331.97178509287517L100.08450457599983 331.97178509287517L100.08450457599983 329.9164975264689L72.02297833599981 329.9164975264689L72.02297833599981 331.97178509287517z"/>
<path stroke-width="2.0" fill="#267f8e" d="M 72.02297833599981 330.6015933819376L100.08450457599983 330.6015933819376L100.08450457599983 328.54630581553135L72.02297833599981 328.54630581553135L72.02297833599981 330.6015933819376z"/>
<path stroke-width="2.0" fill="#26808e" d="M 72.02297833599981 329.2314016710002L100.08450457599983 329.2314016710002L100.08450457599983 327.1761141045939L72.02297833599981 327.1761141045939L72.02297833599981 329.2314016710002z"/>
<path stroke-width="2.0" fill="#26818e" d="M 72.02297833599981 327.86120996006264L100.08450457599983 327.86120996006264L100.08450457599983 325.8059223936564L72.02297833599981 325.8059223936564L72.02297833599981 327.86120996006264z"/>
<path stroke-width="2.0" fill="#25828e" d="M 72.02297833599981 326.49101824912515L100.08450457599983 326.49101824912515L100.08450457599983 324.4357306827189L72.02297833599981 324.4357306827189L72.02297833599981 326.49101824912515z"/>
<path stroke-width="2.0" fill="#25838d" d="M 72.02297833599981 325.12082653818766L100.08450457599983 325.12082653818766L100.08450457599983 323.0655389717814L72.02297833599981 323.0655389717814L72.02297833599981 325.12082653818766z"/>
<path stroke-width="2.0" fill="#24848d" d="M 72.02297833599981 323.7506348272501L100.08450457599983 323.7506348272501L100.08450457599983 321.6953472608439L72.02297833599981 321.6953472608439L72.02297833599981 323.7506348272501z"/>
<path stroke-width="2.0" fill="#24858d" d="M 72.02297833599981 322.3804431163127L100.08450457599983 322.3804431163127L100.08450457599983 320.3251555499064L72.02297833599981 320.3251555499064L72.02297833599981 322.3804431163127z"/>
<path stroke-width="2.0" fill="#24868d" d="M 72.02297833599981 321.01025140537513L100.08450457599983 321.01025140537513L100.08450457599983 318.95496383896887L72.02297833599981 318.95496383896887L72.02297833599981 321.01025140537513z"/>
<path stroke-width="2.0" fill="#23878d" d="M 72.02297833599981 319.64005969443764L100.08450457599983 319.64005969443764L100.08450457599983 317.58477212803143L72.02297833599981 317.58477212803143L72.02297833599981 319.64005969443764z"/>
<path stroke-width="2.0" fill="#23888d" d="M 72.02297833599981 318.26986798350015L100.08450457599983 318.26986798350015L100.08450457599983 316.2145804170939L72.02297833599981 316.2145804170939L72.02297833599981 318.26986798350015z"/>
<path stroke-width="2.0" fill="#23898d" d="M 72.02297833599981 316.8996762725626L100.08450457599983 316.8996762725626L100.08450457599983 314.8443887061564L72.02297833599981 314.8443887061564L72.02297833599981 316.8996762725626z"/>
<path stroke-width="2.0" fill="#22898d" d="M 72.02297833599981 315.52948456162517L100.08450457599983 315.52948456162517L100.08450457599983 313.4741969952189L72.02297833599981 313.4741969952189L72.02297833599981 315.52948456162517z"/>
<path stroke-width="2.0" fill="#228a8d" d="M 72.02297833599981 314.1592928506876L100.08450457599983 314.1592928506876L100.08450457599983 312.10400528428136L72.02297833599981 312.10400528428136L72.02297833599981 314.1592928506876z"/>
<path stroke-width="2.0" fill="#228b8d" d="M 72.02297833599981 312.78910113975013L100.08450457599983 312.78910113975013L100.08450457599983 310.7338135733439L72.02297833599981 310.7338135733439L72.02297833599981 312.78910113975013z"/>
<path stroke-width="2.0" fill="#218c8d" d="M 72.02297833599981 311.41890942881264L100.08450457599983 311.41890942881264L100.08450457599983 309.3636218624064L72.02297833599981 309.3636218624064L72.02297833599981 311.41890942881264z"/>
<path stroke-width="2.0" fill="#218d8c" d="M 72.02297833599981 310.0487177178751L100.08450457599983 310.0487177178751L100.08450457599983 307.9934301514689L72.02297833599981 307.9934301514689L72.02297833599981 310.0487177178751z"/>
<path stroke-width="2.0" fill="#218e8c" d="M 72.02297833599981 308.67852600693766L100.08450457599983 308.67852600693766L100.08450457599983 306.6232384405314L72.02297833599981 306.6232384405314L72.02297833599981 308.67852600693766z"/>
<path stroke-width="2.0" fill="#208f8c" d="M 72.02297833599981 307.3083342960001L100.08450457599983 307.3083342960001L100.08450457599983 305.25304672959385L72.02297833599981 305.25304672959385L72.02297833599981 307.3083342960001z"/>
<path stroke-width="2.0" fill="#20908c" d="M 72.02297833599981 305.9381425850626L100.08450457599983 305.9381425850626L100.08450457599983 303.8828550186564L72.02297833599981 303.8828550186564L72.02297833599981 305.9381425850626z"/>
<path stroke-width="2.0" fill="#20918c" d="M 72.02297833599981 304.56795087412513L100.08450457599983 304.56795087412513L100.08450457599983 302.51266330771887L72.02297833599981 302.51266330771887L72.02297833599981 304.56795087412513z"/>
<path stroke-width="2.0" fill="#1f928c" d="M 72.02297833599981 303.19775916318764L100.08450457599983 303.19775916318764L100.08450457599983 301.1424715967814L72.02297833599981 301.1424715967814L72.02297833599981 303.19775916318764z"/>
<path stroke-width="2.0" fill="#1f938b" d="M 72.02297833599981 301.82756745225015L100.08450457599983 301.82756745225015L100.08450457599983 299.7722798858439L72.02297833599981 299.7722798858439L72.02297833599981 301.82756745225015z"/>
<path stroke-width="2.0" fill="#1f948b" d="M 72.02297833599981 300.4573757413126L100.08450457599983 300.4573757413126L100.08450457599983 298.40208817490634L72.02297833599981 298.40208817490634L72.02297833599981 300.4573757413126z"/>
<path stroke-width="2.0" fill="#1f958b" d="M 72.02297833599981 299.08718403037517L100.08450457599983 299.08718403037517L100.08450457599983 297.0318964639689L72.02297833599981 297.0318964639689L72.02297833599981 299.08718403037517z"/>
<path stroke-width="2.0" fill="#1f968b" d="M 72.02297833599981 297.7169923194376L100.08450457599983 297.7169923194376L100.08450457599983 295.66170475303136L72.02297833599981 295.66170475303136L72.02297833599981 297.7169923194376z"/>
<path stroke-width="2.0" fill="#1e978a" d="M 72.02297833599981 296.34680060850013L100.08450457599983 296.34680060850013L100.08450457599983 294.29151304209387L72.02297833599981 294.29151304209387L72.02297833599981 296.34680060850013z"/>
<path stroke-width="2.0" fill="#1e988a" d="M 72.02297833599981 294.97660889756264L100.08450457599983 294.97660889756264L100.08450457599983 292.9213213311564L72.02297833599981 292.9213213311564L72.02297833599981 294.97660889756264z"/>
<path stroke-width="2.0" fill="#1e998a" d="M 72.02297833599981 293.6064171866251L100.08450457599983 293.6064171866251L100.08450457599983 291.5511296202189L72.02297833599981 291.5511296202189L72.02297833599981 293.6064171866251z"/>
<path stroke-width="2.0" fill="#1e998a" d="M 72.02297833599981 292.23622547568766L100.08450457599983 292.23622547568766L100.08450457599983 290.1809379092814L72.02297833599981 290.1809379092814L72.02297833599981 292.23622547568766z"/>
<path stroke-width="2.0" fill="#1e9a89" d="M 72.02297833599981 290.8660337647501L100.08450457599983 290.8660337647501L100.08450457599983 288.81074619834385L72.02297833599981 288.81074619834385L72.02297833599981 290.8660337647501z"/>
<path stroke-width="2.0" fill="#1e9b89" d="M 72.02297833599981 289.4958420538126L100.08450457599983 289.4958420538126L100.08450457599983 287.44055448740636L72.02297833599981 287.44055448740636L72.02297833599981 289.4958420538126z"/>
<path stroke-width="2.0" fill="#1e9c89" d="M 72.02297833599981 288.12565034287513L100.08450457599983 288.12565034287513L100.08450457599983 286.07036277646887L72.02297833599981 286.07036277646887L72.02297833599981 288.12565034287513z"/>
<path stroke-width="2.0" fill="#1e9d88" d="M 72.02297833599981 286.7554586319376L100.08450457599983 286.7554586319376L100.08450457599983 284.7001710655314L72.02297833599981 284.7001710655314L72.02297833599981 286.7554586319376z"/>
<path stroke-width="2.0" fill="#1e9e88" d="M 72.02297833599981 285.38526692100015L100.08450457599983 285.38526692100015L100.08450457599983 283.3299793545939L72.02297833599981 283.3299793545939L72.02297833599981 285.38526692100015z"/>
<path stroke-width="2.0" fill="#1e9f88" d="M 72.02297833599981 284.0150752100626L100.08450457599983 284.0150752100626L100.08450457599983 281.95978764365634L72.02297833599981 281.95978764365634L72.02297833599981 284.0150752100626z"/>
<path stroke-width="2.0" fill="#1ea087" d="M 72.02297833599981 282.6448834991251L100.08450457599983 282.6448834991251L100.08450457599983 280.5895959327189L72.02297833599981 280.5895959327189L72.02297833599981 282.6448834991251z"/>
<path stroke-width="2.0" fill="#1fa187" d="M 72.02297833599981 281.2746917881876L100.08450457599983 281.2746917881876L100.08450457599983 279.21940422178136L72.02297833599981 279.21940422178136L72.02297833599981 281.2746917881876z"/>
<path stroke-width="2.0" fill="#1fa286" d="M 72.02297833599981 279.9045000772501L100.08450457599983 279.9045000772501L100.08450457599983 277.84921251084387L72.02297833599981 277.84921251084387L72.02297833599981 279.9045000772501z"/>
<path stroke-width="2.0" fill="#1fa386" d="M 72.02297833599981 278.53430836631264L100.08450457599983 278.53430836631264L100.08450457599983 276.4790207999064L72.02297833599981 276.4790207999064L72.02297833599981 278.53430836631264z"/>
<path stroke-width="2.0" fill="#20a485" d="M 72.02297833599981 277.1641166553751L100.08450457599983 277.1641166553751L100.08450457599983 275.10882908896883L72.02297833599981 275.10882908896883L72.02297833599981 277.1641166553751z"/>
<path stroke-width="2.0" fill="#20a585" d="M 72.02297833599981 275.7939249444376L100.08450457599983 275.7939249444376L100.08450457599983 273.7386373780314L72.02297833599981 273.7386373780314L72.02297833599981 275.7939249444376z"/>
<path stroke-width="2.0" fill="#21a685" d="M 72.02297833599981 274.4237332335001L100.08450457599983 274.4237332335001L100.08450457599983 272.36844566709385L72.02297833599981 272.36844566709385L72.02297833599981 274.4237332335001z"/>
<path stroke-width="2.0" fill="#21a784" d="M 72.02297833599981 273.0535415225626L100.08450457599983 273.0535415225626L100.08450457599983 270.99825395615636L72.02297833599981 270.99825395615636L72.02297833599981 273.0535415225626z"/>
<path stroke-width="2.0" fill="#22a784" d="M 72.02297833599981 271.68334981162513L100.08450457599983 271.68334981162513L100.08450457599983 269.62806224521887L72.02297833599981 269.62806224521887L72.02297833599981 271.68334981162513z"/>
<path stroke-width="2.0" fill="#23a883" d="M 72.02297833599981 270.3131581006876L100.08450457599983 270.3131581006876L100.08450457599983 268.2578705342813L72.02297833599981 268.2578705342813L72.02297833599981 270.3131581006876z"/>
<path stroke-width="2.0" fill="#23a982" d="M 72.02297833599981 268.9429663897501L100.08450457599983 268.9429663897501L100.08450457599983 266.8876788233439L72.02297833599981 266.8876788233439L72.02297833599981 268.9429663897501z"/>
<path stroke-width="2.0" fill="#24aa82" d="M 72.02297833599981 267.5727746788126L100.08450457599983 267.5727746788126L100.08450457599983 265.51748711240634L72.02297833599981 265.51748711240634L72.02297833599981 267.5727746788126z"/>
<path stroke-width="2.0" fill="#25ab81" d="M 72.02297833599981 266.2025829678751L100.08450457599983 266.2025829678751L100.08450457599983 264.14729540146885L72.02297833599981 264.14729540146885L72.02297833599981 266.2025829678751z"/>
<path stroke-width="2.0" fill="#26ac81" d="M 72.02297833599981 264.8323912569376L100.08450457599983 264.8323912569376L100.08450457599983 262.77710369053136L72.02297833599981 262.77710369053136L72.02297833599981 264.8323912569376z"/>
<path stroke-width="2.0" fill="#27ad80" d="M 72.02297833599981 263.4621995460001L100.08450457599983 263.4621995460001L100.08450457599983 261.4069119795938L72.02297833599981 261.4069119795938L72.02297833599981 263.4621995460001z"/>
<path stroke-width="2.0" fill="#28ae7f" d="M 72.02297833599981 262.09200783506265L100.08450457599983 262.09200783506265L100.08450457599983 260.0367202686564L72.02297833599981 260.0367202686564L72.02297833599981 262.09200783506265z"/>
<path stroke-width="2.0" fill="#29af7f" d="M 72.02297833599981 260.7218161241251L100.08450457599983 260.7218161241251L100.08450457599983 258.66652855771883L72.02297833599981 258.66652855771883L72.02297833599981 260.7218161241251z"/>
<path stroke-width="2.0" fill="#2ab07e" d="M 72.02297833599981 259.3516244131876L100.08450457599983 259.3516244131876L100.08450457599983 257.29633684678134L72.02297833599981 257.29633684678134L72.02297833599981 259.3516244131876z"/>
<path stroke-width="2.0" fill="#2bb17d" d="M 72.02297833599981 257.9814327022501L100.08450457599983 257.9814327022501L100.08450457599983 255.92614513584385L72.02297833599981 255.92614513584385L72.02297833599981 257.9814327022501z"/>
<path stroke-width="2.0" fill="#2cb17d" d="M 72.02297833599981 256.61124099131257L100.08450457599983 256.61124099131257L100.08450457599983 254.55595342490636L72.02297833599981 254.55595342490636L72.02297833599981 256.61124099131257z"/>
<path stroke-width="2.0" fill="#2eb27c" d="M 72.02297833599981 255.2410492803751L100.08450457599983 255.2410492803751L100.08450457599983 253.18576171396884L72.02297833599981 253.18576171396884L72.02297833599981 255.2410492803751z"/>
<path stroke-width="2.0" fill="#2fb37b" d="M 72.02297833599981 253.8708575694376L100.08450457599983 253.8708575694376L100.08450457599983 251.81557000303135L72.02297833599981 251.81557000303135L72.02297833599981 253.8708575694376z"/>
<path stroke-width="2.0" fill="#30b47a" d="M 72.02297833599981 252.5006658585001L100.08450457599983 252.5006658585001L100.08450457599983 250.44537829209384L72.02297833599981 250.44537829209384L72.02297833599981 252.5006658585001z"/>
<path stroke-width="2.0" fill="#32b57a" d="M 72.02297833599981 251.1304741475626L100.08450457599983 251.1304741475626L100.08450457599983 249.07518658115634L72.02297833599981 249.07518658115634L72.02297833599981 251.1304741475626z"/>
<path stroke-width="2.0" fill="#33b679" d="M 72.02297833599981 249.7602824366251L100.08450457599983 249.7602824366251L100.08450457599983 247.70499487021885L72.02297833599981 247.70499487021885L72.02297833599981 249.7602824366251z"/>
<path stroke-width="2.0" fill="#35b778" d="M 72.02297833599981 248.3900907256876L100.08450457599983 248.3900907256876L100.08450457599983 246.33480315928134L72.02297833599981 246.33480315928134L72.02297833599981 248.3900907256876z"/>
<path stroke-width="2.0" fill="#36b877" d="M 72.02297833599981 247.0198990147501L100.08450457599983 247.0198990147501L100.08450457599983 244.96461144834385L72.02297833599981 244.96461144834385L72.02297833599981 247.0198990147501z"/>
<path stroke-width="2.0" fill="#38b976" d="M 72.02297833599981 245.6497073038126L100.08450457599983 245.6497073038126L100.08450457599983 243.59441973740635L72.02297833599981 243.59441973740635L72.02297833599981 245.6497073038126z"/>
<path stroke-width="2.0" fill="#39b976" d="M 72.02297833599981 244.2795155928751L100.08450457599983 244.2795155928751L100.08450457599983 242.22422802646884L72.02297833599981 242.22422802646884L72.02297833599981 244.2795155928751z"/>
<path stroke-width="2.0" fill="#3bba75" d="M 72.02297833599981 242.90932388193758L100.08450457599983 242.90932388193758L100.08450457599983 240.85403631553135L72.02297833599981 240.85403631553135L72.02297833599981 242.90932388193758z"/>
<path stroke-width="2.0" fill="#3dbb74" d="M 72.02297833599981 241.5391321710001L100.08450457599983 241.5391321710001L100.08450457599983 239.48384460459383L72.02297833599981 239.48384460459383L72.02297833599981 241.5391321710001z"/>
<path stroke-width="2.0" fill="#3ebc73" d="M 72.02297833599981 240.1689404600626L100.08450457599983 240.1689404600626L100.08450457599983 238.11365289365634L72.02297833599981 238.11365289365634L72.02297833599981 240.1689404600626z"/>
<path stroke-width="2.0" fill="#40bd72" d="M 72.02297833599981 238.79874874912508L100.08450457599983 238.79874874912508L100.08450457599983 236.74346118271885L72.02297833599981 236.74346118271885L72.02297833599981 238.79874874912508z"/>
<path stroke-width="2.0" fill="#42be71" d="M 72.02297833599981 237.4285570381876L100.08450457599983 237.4285570381876L100.08450457599983 235.37326947178133L72.02297833599981 235.37326947178133L72.02297833599981 237.4285570381876z"/>
<path stroke-width="2.0" fill="#44be70" d="M 72.02297833599981 236.0583653272501L100.08450457599983 236.0583653272501L100.08450457599983 234.00307776084384L72.02297833599981 234.00307776084384L72.02297833599981 236.0583653272501z"/>
<path stroke-width="2.0" fill="#45bf6f" d="M 72.02297833599981 234.68817361631258L100.08450457599983 234.68817361631258L100.08450457599983 232.63288604990635L72.02297833599981 232.63288604990635L72.02297833599981 234.68817361631258z"/>
<path stroke-width="2.0" fill="#47c06e" d="M 72.02297833599981 233.3179819053751L100.08450457599983 233.3179819053751L100.08450457599983 231.26269433896883L72.02297833599981 231.26269433896883L72.02297833599981 233.3179819053751z"/>
<path stroke-width="2.0" fill="#49c16d" d="M 72.02297833599981 231.94779019443757L100.08450457599983 231.94779019443757L100.08450457599983 229.89250262803134L72.02297833599981 229.89250262803134L72.02297833599981 231.94779019443757z"/>
<path stroke-width="2.0" fill="#4bc26c" d="M 72.02297833599981 230.57759848350008L100.08450457599983 230.57759848350008L100.08450457599983 228.52231091709385L72.02297833599981 228.52231091709385L72.02297833599981 230.57759848350008z"/>
<path stroke-width="2.0" fill="#4dc26b" d="M 72.02297833599981 229.2074067725626L100.08450457599983 229.2074067725626L100.08450457599983 227.15211920615633L72.02297833599981 227.15211920615633L72.02297833599981 229.2074067725626z"/>
<path stroke-width="2.0" fill="#4fc369" d="M 72.02297833599981 227.83721506162507L100.08450457599983 227.83721506162507L100.08450457599983 225.78192749521884L72.02297833599981 225.78192749521884L72.02297833599981 227.83721506162507z"/>
<path stroke-width="2.0" fill="#51c468" d="M 72.02297833599981 226.46702335068755L100.08450457599983 226.46702335068755L100.08450457599983 224.41173578428135L72.02297833599981 224.41173578428135L72.02297833599981 226.46702335068755z"/>
<path stroke-width="2.0" fill="#53c567" d="M 72.02297833599981 225.09683163975006L100.08450457599983 225.09683163975006L100.08450457599983 223.04154407334386L72.02297833599981 223.04154407334386L72.02297833599981 225.09683163975006z"/>
<path stroke-width="2.0" fill="#55c666" d="M 72.02297833599981 223.72663992881257L100.08450457599983 223.72663992881257L100.08450457599983 221.6713523624063L72.02297833599981 221.6713523624063L72.02297833599981 223.72663992881257z"/>
<path stroke-width="2.0" fill="#57c665" d="M 72.02297833599981 222.35644821787508L100.08450457599983 222.35644821787508L100.08450457599983 220.30116065146882L72.02297833599981 220.30116065146882L72.02297833599981 222.35644821787508z"/>
<path stroke-width="2.0" fill="#59c764" d="M 72.02297833599981 220.9862565069376L100.08450457599983 220.9862565069376L100.08450457599983 218.93096894053133L72.02297833599981 218.93096894053133L72.02297833599981 220.9862565069376z"/>
<path stroke-width="2.0" fill="#5bc862" d="M 72.02297833599981 219.6160647960001L100.08450457599983 219.6160647960001L100.08450457599983 217.56077722959384L72.02297833599981 217.56077722959384L72.02297833599981 219.6160647960001z"/>
<path stroke-width="2.0" fill="#5ec961" d="M 72.02297833599981 218.24587308506256L100.08450457599983 218.24587308506256L100.08450457599983 216.19058551865635L72.02297833599981 216.19058551865635L72.02297833599981 218.24587308506256z"/>
<path stroke-width="2.0" fill="#60c960" d="M 72.02297833599981 216.87568137412507L100.08450457599983 216.87568137412507L100.08450457599983 214.8203938077188L72.02297833599981 214.8203938077188L72.02297833599981 216.87568137412507z"/>
<path stroke-width="2.0" fill="#62ca5f" d="M 72.02297833599981 215.50548966318757L100.08450457599983 215.50548966318757L100.08450457599983 213.4502020967813L72.02297833599981 213.4502020967813L72.02297833599981 215.50548966318757z"/>
<path stroke-width="2.0" fill="#64cb5d" d="M 72.02297833599981 214.13529795225008L100.08450457599983 214.13529795225008L100.08450457599983 212.08001038584382L72.02297833599981 212.08001038584382L72.02297833599981 214.13529795225008z"/>
<path stroke-width="2.0" fill="#67cc5c" d="M 72.02297833599981 212.7651062413126L100.08450457599983 212.7651062413126L100.08450457599983 210.70981867490633L72.02297833599981 210.70981867490633L72.02297833599981 212.7651062413126z"/>
<path stroke-width="2.0" fill="#69cc5b" d="M 72.02297833599981 211.39491453037505L100.08450457599983 211.39491453037505L100.08450457599983 209.33962696396884L72.02297833599981 209.33962696396884L72.02297833599981 211.39491453037505z"/>
<path stroke-width="2.0" fill="#6bcd59" d="M 72.02297833599981 210.02472281943756L100.08450457599983 210.02472281943756L100.08450457599983 207.9694352530313L72.02297833599981 207.9694352530313L72.02297833599981 210.02472281943756z"/>
<path stroke-width="2.0" fill="#6dce58" d="M 72.02297833599981 208.65453110850007L100.08450457599983 208.65453110850007L100.08450457599983 206.5992435420938L72.02297833599981 206.5992435420938L72.02297833599981 208.65453110850007z"/>
<path stroke-width="2.0" fill="#70ce56" d="M 72.02297833599981 207.28433939756258L100.08450457599983 207.28433939756258L100.08450457599983 205.2290518311563L72.02297833599981 205.2290518311563L72.02297833599981 207.28433939756258z"/>
<path stroke-width="2.0" fill="#72cf55" d="M 72.02297833599981 205.91414768662509L100.08450457599983 205.91414768662509L100.08450457599983 203.85886012021882L72.02297833599981 203.85886012021882L72.02297833599981 205.91414768662509z"/>
<path stroke-width="2.0" fill="#74d054" d="M 72.02297833599981 204.5439559756876L100.08450457599983 204.5439559756876L100.08450457599983 202.48866840928133L72.02297833599981 202.48866840928133L72.02297833599981 204.5439559756876z"/>
<path stroke-width="2.0" fill="#77d052" d="M 72.02297833599981 203.17376426475005L100.08450457599983 203.17376426475005L100.08450457599983 201.11847669834384L72.02297833599981 201.11847669834384L72.02297833599981 203.17376426475005z"/>
<path stroke-width="2.0" fill="#79d151" d="M 72.02297833599981 201.80357255381256L100.08450457599983 201.80357255381256L100.08450457599983 199.7482849874063L72.02297833599981 199.7482849874063L72.02297833599981 201.80357255381256z"/>
<path stroke-width="2.0" fill="#7cd24f" d="M 72.02297833599981 200.43338084287507L100.08450457599983 200.43338084287507L100.08450457599983 198.3780932764688L72.02297833599981 198.3780932764688L72.02297833599981 200.43338084287507z"/>
<path stroke-width="2.0" fill="#7ed24e" d="M 72.02297833599981 199.06318913193758L100.08450457599983 199.06318913193758L100.08450457599983 197.0079015655313L72.02297833599981 197.0079015655313L72.02297833599981 199.06318913193758z"/>
<path stroke-width="2.0" fill="#81d34c" d="M 72.02297833599981 197.6929974210001L100.08450457599983 197.6929974210001L100.08450457599983 195.63770985459382L72.02297833599981 195.63770985459382L72.02297833599981 197.6929974210001z"/>
<path stroke-width="2.0" fill="#83d34b" d="M 72.02297833599981 196.32280571006254L100.08450457599983 196.32280571006254L100.08450457599983 194.26751814365633L72.02297833599981 194.26751814365633L72.02297833599981 196.32280571006254z"/>
<path stroke-width="2.0" fill="#86d449" d="M 72.02297833599981 194.95261399912505L100.08450457599983 194.95261399912505L100.08450457599983 192.89732643271878L72.02297833599981 192.89732643271878L72.02297833599981 194.95261399912505z"/>
<path stroke-width="2.0" fill="#88d547" d="M 72.02297833599981 193.58242228818756L100.08450457599983 193.58242228818756L100.08450457599983 191.5271347217813L72.02297833599981 191.5271347217813L72.02297833599981 193.58242228818756z"/>
<path stroke-width="2.0" fill="#8bd546" d="M 72.02297833599981 192.21223057725007L100.08450457599983 192.21223057725007L100.08450457599983 190.1569430108438L72.02297833599981 190.1569430108438L72.02297833599981 192.21223057725007z"/>
<path stroke-width="2.0" fill="#8dd644" d="M 72.02297833599981 190.84203886631258L100.08450457599983 190.84203886631258L100.08450457599983 188.7867512999063L72.02297833599981 188.7867512999063L72.02297833599981 190.84203886631258z"/>
<path stroke-width="2.0" fill="#90d643" d="M 72.02297833599981 189.4718471553751L100.08450457599983 189.4718471553751L100.08450457599983 187.41655958896882L72.02297833599981 187.41655958896882L72.02297833599981 189.4718471553751z"/>
<path stroke-width="2.0" fill="#92d741" d="M 72.02297833599981 188.10165544443754L100.08450457599983 188.10165544443754L100.08450457599983 186.04636787803133L72.02297833599981 186.04636787803133L72.02297833599981 188.10165544443754z"/>
<path stroke-width="2.0" fill="#95d73f" d="M 72.02297833599981 186.73146373350005L100.08450457599983 186.73146373350005L100.08450457599983 184.6761761670938L72.02297833599981 184.6761761670938L72.02297833599981 186.73146373350005z"/>
<path stroke-width="2.0" fill="#97d83e" d="M 72.02297833599981 185.36127202256256L100.08450457599983 185.36127202256256L100.08450457599983 183.3059844561563L72.02297833599981 183.3059844561563L72.02297833599981 185.36127202256256z"/>
<path stroke-width="2.0" fill="#9ad83c" d="M 72.02297833599981 183.99108031162507L100.08450457599983 183.99108031162507L100.08450457599983 181.9357927452188L72.02297833599981 181.9357927452188L72.02297833599981 183.99108031162507z"/>
<path stroke-width="2.0" fill="#9dd93a" d="M 72.02297833599981 182.62088860068758L100.08450457599983 182.62088860068758L100.08450457599983 180.56560103428131L72.02297833599981 180.56560103428131L72.02297833599981 182.62088860068758z"/>
<path stroke-width="2.0" fill="#9fd938" d="M 72.02297833599981 181.25069688975003L100.08450457599983 181.25069688975003L100.08450457599983 179.19540932334382L72.02297833599981 179.19540932334382L72.02297833599981 181.25069688975003z"/>
<path stroke-width="2.0" fill="#a2da37" d="M 72.02297833599981 179.88050517881254L100.08450457599983 179.88050517881254L100.08450457599983 177.82521761240628L72.02297833599981 177.82521761240628L72.02297833599981 179.88050517881254z"/>
<path stroke-width="2.0" fill="#a5da35" d="M 72.02297833599981 178.51031346787505L100.08450457599983 178.51031346787505L100.08450457599983 176.4550259014688L72.02297833599981 176.4550259014688L72.02297833599981 178.51031346787505z"/>
<path stroke-width="2.0" fill="#a7db33" d="M 72.02297833599981 177.14012175693756L100.08450457599983 177.14012175693756L100.08450457599983 175.0848341905313L72.02297833599981 175.0848341905313L72.02297833599981 177.14012175693756z"/>
<path stroke-width="2.0" fill="#aadb32" d="M 72.02297833599981 175.76993004600007L100.08450457599983 175.76993004600007L100.08450457599983 173.7146424795938L72.02297833599981 173.7146424795938L72.02297833599981 175.76993004600007z"/>
<path stroke-width="2.0" fill="#addc30" d="M 72.02297833599981 174.39973833506252L100.08450457599983 174.39973833506252L100.08450457599983 172.34445076865632L72.02297833599981 172.34445076865632L72.02297833599981 174.39973833506252z"/>
<path stroke-width="2.0" fill="#afdc2e" d="M 72.02297833599981 173.02954662412503L100.08450457599983 173.02954662412503L100.08450457599983 170.97425905771883L72.02297833599981 170.97425905771883L72.02297833599981 173.02954662412503z"/>
<path stroke-width="2.0" fill="#b2dd2c" d="M 72.02297833599981 171.65935491318754L100.08450457599983 171.65935491318754L100.08450457599983 169.60406734678128L72.02297833599981 169.60406734678128L72.02297833599981 171.65935491318754z"/>
<path stroke-width="2.0" fill="#b5dd2b" d="M 72.02297833599981 170.28916320225005L100.08450457599983 170.28916320225005L100.08450457599983 168.2338756358438L72.02297833599981 168.2338756358438L72.02297833599981 170.28916320225005z"/>
<path stroke-width="2.0" fill="#b7dd29" d="M 72.02297833599981 168.91897149131256L100.08450457599983 168.91897149131256L100.08450457599983 166.8636839249063L72.02297833599981 166.8636839249063L72.02297833599981 168.91897149131256z"/>
<path stroke-width="2.0" fill="#bade27" d="M 72.02297833599981 167.54877978037507L100.08450457599983 167.54877978037507L100.08450457599983 165.4934922139688L72.02297833599981 165.4934922139688L72.02297833599981 167.54877978037507z"/>
<path stroke-width="2.0" fill="#bdde26" d="M 72.02297833599981 166.17858806943752L100.08450457599983 166.17858806943752L100.08450457599983 164.12330050303132L72.02297833599981 164.12330050303132L72.02297833599981 166.17858806943752z"/>
<path stroke-width="2.0" fill="#bfdf24" d="M 72.02297833599981 164.80839635850003L100.08450457599983 164.80839635850003L100.08450457599983 162.75310879209377L72.02297833599981 162.75310879209377L72.02297833599981 164.80839635850003z"/>
<path stroke-width="2.0" fill="#c2df22" d="M 72.02297833599981 163.43820464756254L100.08450457599983 163.43820464756254L100.08450457599983 161.38291708115628L72.02297833599981 161.38291708115628L72.02297833599981 163.43820464756254z"/>
<path stroke-width="2.0" fill="#c5df21" d="M 72.02297833599981 162.06801293662505L100.08450457599983 162.06801293662505L100.08450457599983 160.0127253702188L72.02297833599981 160.0127253702188L72.02297833599981 162.06801293662505z"/>
<path stroke-width="2.0" fill="#c7e01f" d="M 72.02297833599981 160.69782122568756L100.08450457599983 160.69782122568756L100.08450457599983 158.6425336592813L72.02297833599981 158.6425336592813L72.02297833599981 160.69782122568756z"/>
<path stroke-width="2.0" fill="#cae01e" d="M 72.02297833599981 159.32762951475002L100.08450457599983 159.32762951475002L100.08450457599983 157.2723419483438L72.02297833599981 157.2723419483438L72.02297833599981 159.32762951475002z"/>
<path stroke-width="2.0" fill="#cde01d" d="M 72.02297833599981 157.95743780381252L100.08450457599983 157.95743780381252L100.08450457599983 155.90215023740626L72.02297833599981 155.90215023740626L72.02297833599981 157.95743780381252z"/>
<path stroke-width="2.0" fill="#cfe11c" d="M 72.02297833599981 156.58724609287503L100.08450457599983 156.58724609287503L100.08450457599983 154.53195852646877L72.02297833599981 154.53195852646877L72.02297833599981 156.58724609287503z"/>
<path stroke-width="2.0" fill="#d2e11b" d="M 72.02297833599981 155.21705438193754L100.08450457599983 155.21705438193754L100.08450457599983 153.16176681553128L72.02297833599981 153.16176681553128L72.02297833599981 155.21705438193754z"/>
<path stroke-width="2.0" fill="#d4e11a" d="M 72.02297833599981 153.84686267100005L100.08450457599983 153.84686267100005L100.08450457599983 151.7915751045938L72.02297833599981 151.7915751045938L72.02297833599981 153.84686267100005z"/>
<path stroke-width="2.0" fill="#d7e219" d="M 72.02297833599981 152.47667096006256L100.08450457599983 152.47667096006256L100.08450457599983 150.4213833936563L72.02297833599981 150.4213833936563L72.02297833599981 152.47667096006256z"/>
<path stroke-width="2.0" fill="#dae218" d="M 72.02297833599981 151.10647924912502L100.08450457599983 151.10647924912502L100.08450457599983 149.0511916827188L72.02297833599981 149.0511916827188L72.02297833599981 151.10647924912502z"/>
<path stroke-width="2.0" fill="#dce218" d="M 72.02297833599981 149.73628753818753L100.08450457599983 149.73628753818753L100.08450457599983 147.68099997178126L72.02297833599981 147.68099997178126L72.02297833599981 149.73628753818753z"/>
<path stroke-width="2.0" fill="#dfe318" d="M 72.02297833599981 148.36609582725004L100.08450457599983 148.36609582725004L100.08450457599983 146.31080826084377L72.02297833599981 146.31080826084377L72.02297833599981 148.36609582725004z"/>
<path stroke-width="2.0" fill="#e1e318" d="M 72.02297833599981 146.99590411631254L100.08450457599983 146.99590411631254L100.08450457599983 144.94061654990628L72.02297833599981 144.94061654990628L72.02297833599981 146.99590411631254z"/>
<path stroke-width="2.0" fill="#e4e318" d="M 72.02297833599981 145.62571240537505L100.08450457599983 145.62571240537505L100.08450457599983 143.5704248389688L72.02297833599981 143.5704248389688L72.02297833599981 145.62571240537505z"/>
<path stroke-width="2.0" fill="#e7e419" d="M 72.02297833599981 144.2555206944375L100.08450457599983 144.2555206944375L100.08450457599983 142.2002331280313L72.02297833599981 142.2002331280313L72.02297833599981 144.2555206944375z"/>
<path stroke-width="2.0" fill="#e9e419" d="M 72.02297833599981 142.88532898350002L100.08450457599983 142.88532898350002L100.08450457599983 140.83004141709375L72.02297833599981 140.83004141709375L72.02297833599981 142.88532898350002z"/>
<path stroke-width="2.0" fill="#ece41a" d="M 72.02297833599981 141.51513727256253L100.08450457599983 141.51513727256253L100.08450457599983 139.45984970615626L72.02297833599981 139.45984970615626L72.02297833599981 141.51513727256253z"/>
<path stroke-width="2.0" fill="#eee51b" d="M 72.02297833599981 140.14494556162504L100.08450457599983 140.14494556162504L100.08450457599983 138.08965799521877L72.02297833599981 138.08965799521877L72.02297833599981 140.14494556162504z"/>
<path stroke-width="2.0" fill="#f1e51c" d="M 72.02297833599981 138.77475385068755L100.08450457599983 138.77475385068755L100.08450457599983 136.71946628428128L72.02297833599981 136.71946628428128L72.02297833599981 138.77475385068755z"/>
<path stroke-width="2.0" fill="#f3e51e" d="M 72.02297833599981 137.40456213975L100.08450457599983 137.40456213975L100.08450457599983 135.3492745733438L72.02297833599981 135.3492745733438L72.02297833599981 137.40456213975z"/>
<path stroke-width="2.0" fill="#f6e61f" d="M 72.02297833599981 136.0343704288125L100.08450457599983 136.0343704288125L100.08450457599983 133.9790828624063L72.02297833599981 133.9790828624063L72.02297833599981 136.0343704288125z"/>
<path stroke-width="2.0" fill="#f8e621" d="M 72.02297833599981 134.66417871787502L100.08450457599983 134.66417871787502L100.08450457599983 132.60889115146875L72.02297833599981 132.60889115146875L72.02297833599981 134.66417871787502z"/>
<path stroke-width="2.0" fill="#fae622" d="M 72.02297833599981 133.29398700693753L100.08450457599983 133.29398700693753L100.08450457599983 131.23869944053126L72.02297833599981 131.23869944053126L72.02297833599981 133.29398700693753z"/>
<path fill="none" stroke="#000000" d="M 72.02297833599981 482.69287329600024L100.08450457599983 482.69287329600024L100.08450457599983 131.92379529600004L72.02297833599981 131.92379529600004L72.02297833599981 482.69287329600024z"/>
<path stroke-width="2.0" fill="none" stroke="#e7ecef" d="M 200.63830693599988 425.63443660800016L317.561332936 425.63443660800016L434.48435893600004 425.63443660800016L551.4073849360002 425.63443660800016L668.3304109360001 425.63443660800016L785.2534369360003 308.71141060800005L785.2534369360003 191.788384608"/>
<path stroke-width="2.0" fill="none" stroke="#ff8811" d="M 200.63830693599988 422.82828398400017L317.561332936 422.82828398400017L434.48435893600004 422.82828398400017L551.4073849360002 305.90525798400006L668.3304109360001 188.982231984L785.2534369360003 188.982231984"/>
<path fill="none" stroke="#ffc0cb" d="M 984.0225811360003 167.00070309600002L913.8687655360003 167.00070309600002"/>
<path fill="none" stroke="#ffc0cb" d="M 984.0225811360003 167.00070309600002L927.8995286560003 195.06222933600003"/>
<path fill="none" stroke="#ffc0cb" d="M 984.0225811360003 167.00070309600002L941.9302917760003 216.10837401600006"/>
<path fill="none" stroke="#ffc0cb" d="M 1124.3302123360004 96.84688749599998L955.9610548960004 230.13913713600007"/>
<path fill="none" stroke="#ffc0cb" d="M 1124.3302123360004 237.15451869600008L984.0225811360003 237.15451869600008"/>
<path fill="none" stroke="#ffc0cb" d="M 1124.3302123360004 237.15451869600008L1026.1148704960003 216.10837401600006"/>
<path stroke-width="2.0" fill="none" stroke="#000000" d="M 984.0225811360003 167.00070309600002L1124.3302123360004 96.84688749599998L1124.3302123360004 237.15451869600008"/>
<path fill="#ffffff" stroke="#000000" d="M 977.0071995760004 167.00070309600002C977.0071995760004 170.87519169778832 980.1480925342121 174.01608465600003 984.0225811360003 174.01608465600003C987.8970697377886 174.01608465600003 991.0379626960004 170.87519169778832 991.0379626960004 167.00070309600002C991.0379626960004 163.12621449421172 987.8970697377886 159.98532153600001 984.0225811360003 159.98532153600001C980.1480925342121 159.98532153600001 977.0071995760004 163.12621449421172 977.0071995760004 167.00070309600002z"/>
<path fill="#ffffff" stroke="#000000" d="M 1117.3148307760005 96.84688749599998C1117.3148307760005 100.72137609778827 1120.4557237342121 103.86226905599997 1124.3302123360004 103.86226905599997C1128.2047009377889 103.86226905599997 1131.3455938960005 100.72137609778827 1131.3455938960005 96.84688749599998C1131.3455938960005 92.9723988942117 1128.2047009377889 89.83150593599997 1124.3302123360004 89.83150593599997C1120.4557237342121 89.83150593599997 1117.3148307760005 92.9723988942117 1117.3148307760005 96.84688749599998z"/>
<path fill="#ffffff" stroke="#000000" d="M 1117.3148307760005 237.15451869600008C1117.3148307760005 241.02900729778835 1120.4557237342121 244.16990025600006 1124.3302123360004 244.16990025600006C1128.2047009377889 244.16990025600006 1131.3455938960005 241.02900729778835 1131.3455938960005 237.15451869600008C1131.3455938960005 233.28003009421178 1128.2047009377889 230.13913713600007 1124.3302123360004 230.13913713600007C1120.4557237342121 230.13913713600007 1117.3148307760005 233.28003009421178 1117.3148307760005 237.15451869600008z"/>
<path stroke-width="2.0" fill="none" stroke="#000000" d="M 913.8687655360003 167.00070309600002L927.8995286560003 195.06222933600003L941.9302917760003 216.10837401600006L955.9610548960004 230.13913713600007L984.0225811360003 237.15451869600008L1026.1148704960003 216.10837401600006"/>
<path fill="#ffffff" stroke="#000000" d="M 906.8533839760003 167.00070309600002C906.8533839760003 170.87519169778832 909.994276934212 174.01608465600003 913.8687655360003 174.01608465600003C917.7432541377887 174.01608465600003 920.8841470960003 170.87519169778832 920.8841470960003 167.00070309600002C920.8841470960003 163.12621449421172 917.7432541377887 159.98532153600001 913.8687655360003 159.98532153600001C909.994276934212 159.98532153600001 906.8533839760003 163.12621449421172 906.8533839760003 167.00070309600002z"/>
<path fill="#ffffff" stroke="#000000" d="M 920.8841470960003 195.06222933600003C920.8841470960003 198.93671793778833 924.025040054212 202.07761089600004 927.8995286560003 202.07761089600004C931.7740172577886 202.07761089600004 934.9149102160003 198.93671793778833 934.9149102160003 195.06222933600003C934.9149102160003 191.18774073421176 931.7740172577886 188.04684777600005 927.8995286560003 188.04684777600005C924.025040054212 188.04684777600005 920.8841470960003 191.18774073421176 920.8841470960003 195.06222933600003z"/>
<path fill="#ffffff" stroke="#000000" d="M 934.9149102160003 216.10837401600006C934.9149102160003 219.98286261778833 938.0558031742121 223.12375557600006 941.9302917760003 223.12375557600006C945.8047803777886 223.12375557600006 948.9456733360003 219.98286261778833 948.9456733360003 216.10837401600006C948.9456733360003 212.23388541421176 945.8047803777886 209.09299245600005 941.9302917760003 209.09299245600005C938.0558031742121 209.09299245600005 934.9149102160003 212.23388541421176 934.9149102160003 216.10837401600006z"/>
<path fill="#ffffff" stroke="#000000" d="M 948.9456733360004 230.13913713600007C948.9456733360004 234.01362573778835 952.086566294212 237.15451869600008 955.9610548960004 237.15451869600008C959.8355434977886 237.15451869600008 962.9764364560003 234.01362573778835 962.9764364560003 230.13913713600007C962.9764364560003 226.26464853421177 959.8355434977886 223.12375557600006 955.9610548960004 223.12375557600006C952.086566294212 223.12375557600006 948.9456733360004 226.26464853421177 948.9456733360004 230.13913713600007z"/>
<path fill="#ffffff" stroke="#000000" d="M 977.0071995760004 237.15451869600008C977.0071995760004 241.02900729778835 980.1480925342121 244.16990025600006 984.0225811360003 244.16990025600006C987.8970697377886 244.16990025600006 991.0379626960004 241.02900729778835 991.0379626960004 237.15451869600008C991.0379626960004 233.28003009421178 987.8970697377886 230.13913713600007 984.0225811360003 230.13913713600007C980.1480925342121 230.13913713600007 977.0071995760004 233.28003009421178 977.0071995760004 237.15451869600008z"/>
<path fill="#ffffff" stroke="#000000" d="M 1019.0994889360004 216.10837401600006C1019.0994889360004 219.98286261778833 1022.2403818942121 223.12375557600006 1026.1148704960003 223.12375557600006C1029.9893590977886 223.12375557600006 1033.1302520560005 219.98286261778833 1033.1302520560005 216.10837401600006C1033.1302520560005 212.23388541421176 1029.9893590977886 209.09299245600005 1026.1148704960003 209.09299245600005C1022.2403818942121 209.09299245600005 1019.0994889360004 212.23388541421176 1019.0994889360004 216.10837401600006z"/>
</g>
</svg>